<?xml version="1.0" standalone="no"?><!DOCTYPE svg PUBLIC "-//W3C//DTD SVG 1.1//EN" "http://www.w3.org/Graphics/SVG/1.1/DTD/svg11.dtd"><svg height="769" legacy-metrics="false" node-id="1" sillyvg="true" template-height="769" template-width="783" version="1.1" viewBox="0 0 783 769" width="783" xmlns="http://www.w3.org/2000/svg" xmlns:xlink="http://www.w3.org/1999/xlink"><defs node-id="210"><clipPath id="clip-path" node-id="5"><path d="M 613.87 427.68 C 613.87 560.50 506.19 668.18 373.37 668.18 C 240.55 668.18 132.87 560.50 132.87 427.68 C 132.87 317.20 207.37 224.12 308.87 195.93 C 351.08 184.26 395.66 184.26 437.87 195.93 C 539.37 224.12 613.87 317.20 613.87 427.68 Z" fill="#000000" fill-rule="nonzero" node-id="213" stroke="none" target-height="481.00012" target-width="481" target-x="132.87" target-y="187.17987"></path></clipPath><clipPath id="clip-path-2" node-id="7"><path d="M 373.37 651.18 C 288.21 651.17 210.45 602.77 172.85 526.36 C 135.24 449.95 144.32 358.81 196.26 291.32 C 238.56 236.34 303.99 204.12 373.37 204.12 C 442.74 204.12 508.17 236.34 550.47 291.32 C 602.42 358.81 611.50 449.95 573.90 526.36 C 536.29 602.77 458.53 651.17 373.37 651.18 Z" fill="#000000" fill-rule="nonzero" node-id="217" stroke="none" target-height="447.06125" target-width="446.97162" target-x="149.88441" target-y="204.11874"></path></clipPath><clipPath id="clip-path-3" node-id="9"><path d="M 227.55 749.36 L 227.55 749.36 C 228.82 751.68 230.73 753.59 233.05 754.85 L 233.05 754.85 C 230.73 756.12 228.82 758.03 227.55 760.35 L 227.55 760.35 C 226.29 758.03 224.38 756.12 222.06 754.85 L 222.06 754.85 C 224.38 753.59 226.29 751.68 227.55 749.36 Z" fill="#000000" fill-rule="nonzero" node-id="221" stroke="none" target-height="10.98999" target-width="10.9900055" target-x="222.06" target-y="749.36"></path></clipPath></defs><g node-id="633"><g node-id="634"><g clip-path="url(#clip-path)" group-id="1,2" node-id="227"><path d="M 132.87 187.18 L 132.87 187.18 Z" fill="#e5e52e" fill-rule="nonzero" group-id="1,2" node-id="229" stroke="none" target-height="0" target-width="0" target-x="132.87" target-y="187.18"></path><path d="M 132.87 187.18 L 145.20 187.18 L 145.20 668.18 L 132.87 668.18 Z" fill="#e5e52e" fill-rule="nonzero" group-id="1,2" node-id="231" stroke="none" target-height="481" target-width="12.330002" target-x="132.87" target-y="187.18"></path><path d="M 145.20 187.18 L 157.53 187.18 L 157.53 668.18 L 145.20 668.18 Z" fill="#e4e42e" fill-rule="nonzero" group-id="1,2" node-id="233" stroke="none" target-height="481" target-width="12.330002" target-x="145.2" target-y="187.18"></path><path d="M 157.53 187.18 L 169.86 187.18 L 169.86 668.18 L 157.53 668.18 Z" fill="#e4e32f" fill-rule="nonzero" group-id="1,2" node-id="235" stroke="none" target-height="481" target-width="12.330002" target-x="157.53" target-y="187.18"></path><path d="M 169.87 187.18 L 182.20 187.18 L 182.20 668.18 L 169.87 668.18 Z" fill="#e3e22f" fill-rule="nonzero" group-id="1,2" node-id="237" stroke="none" target-height="481" target-width="12.330002" target-x="169.87" target-y="187.18"></path><path d="M 182.20 187.18 L 194.53 187.18 L 194.53 668.18 L 182.20 668.18 Z" fill="#e2e12f" fill-rule="nonzero" group-id="1,2" node-id="239" stroke="none" target-height="481" target-width="12.330002" target-x="182.2" target-y="187.18"></path><path d="M 194.53 187.18 L 206.86 187.18 L 206.86 668.18 L 194.53 668.18 Z" fill="#e2e030" fill-rule="nonzero" group-id="1,2" node-id="241" stroke="none" target-height="481" target-width="12.330002" target-x="194.53" target-y="187.18"></path><path d="M 206.87 187.18 L 219.20 187.18 L 219.20 668.18 L 206.87 668.18 Z" fill="#e1df30" fill-rule="nonzero" group-id="1,2" node-id="243" stroke="none" target-height="481" target-width="12.330002" target-x="206.87" target-y="187.18"></path><path d="M 219.20 187.18 L 231.53 187.18 L 231.53 668.18 L 219.20 668.18 Z" fill="#e0de30" fill-rule="nonzero" group-id="1,2" node-id="245" stroke="none" target-height="481" target-width="12.330002" target-x="219.2" target-y="187.18"></path><path d="M 231.53 187.18 L 243.86 187.18 L 243.86 668.18 L 231.53 668.18 Z" fill="#e0dd31" fill-rule="nonzero" group-id="1,2" node-id="247" stroke="none" target-height="481" target-width="12.330002" target-x="231.53" target-y="187.18"></path><path d="M 243.87 187.18 L 256.20 187.18 L 256.20 668.18 L 243.87 668.18 Z" fill="#dfdc31" fill-rule="nonzero" group-id="1,2" node-id="249" stroke="none" target-height="481" target-width="12.330017" target-x="243.87" target-y="187.18"></path><path d="M 256.20 187.18 L 268.53 187.18 L 268.53 668.18 L 256.20 668.18 Z" fill="#dedb31" fill-rule="nonzero" group-id="1,2" node-id="251" stroke="none" target-height="481" target-width="12.329987" target-x="256.2" target-y="187.18"></path><path d="M 268.53 187.18 L 280.86 187.18 L 280.86 668.18 L 268.53 668.18 Z" fill="#deda32" fill-rule="nonzero" group-id="1,2" node-id="253" stroke="none" target-height="481" target-width="12.329987" target-x="268.53" target-y="187.18"></path><path d="M 280.87 187.18 L 293.20 187.18 L 293.20 668.18 L 280.87 668.18 Z" fill="#ddd932" fill-rule="nonzero" group-id="1,2" node-id="255" stroke="none" target-height="481" target-width="12.330017" target-x="280.87" target-y="187.18"></path><path d="M 293.20 187.18 L 305.53 187.18 L 305.53 668.18 L 293.20 668.18 Z" fill="#dcd832" fill-rule="nonzero" group-id="1,2" node-id="257" stroke="none" target-height="481" target-width="12.329987" target-x="293.2" target-y="187.18"></path><path d="M 305.53 187.18 L 317.86 187.18 L 317.86 668.18 L 305.53 668.18 Z" fill="#dcd733" fill-rule="nonzero" group-id="1,2" node-id="259" stroke="none" target-height="481" target-width="12.329987" target-x="305.53" target-y="187.18"></path><path d="M 317.87 187.18 L 330.20 187.18 L 330.20 668.18 L 317.87 668.18 Z" fill="#dbd633" fill-rule="nonzero" group-id="1,2" node-id="261" stroke="none" target-height="481" target-width="12.330017" target-x="317.87" target-y="187.18"></path><path d="M 330.20 187.18 L 342.53 187.18 L 342.53 668.18 L 330.20 668.18 Z" fill="#dad533" fill-rule="nonzero" group-id="1,2" node-id="263" stroke="none" target-height="481" target-width="12.329987" target-x="330.2" target-y="187.18"></path><path d="M 342.53 187.18 L 354.86 187.18 L 354.86 668.18 L 342.53 668.18 Z" fill="#dad434" fill-rule="nonzero" group-id="1,2" node-id="265" stroke="none" target-height="481" target-width="12.329987" target-x="342.53" target-y="187.18"></path><path d="M 354.87 187.18 L 367.20 187.18 L 367.20 668.18 L 354.87 668.18 Z" fill="#d9d334" fill-rule="nonzero" group-id="1,2" node-id="267" stroke="none" target-height="481" target-width="12.330017" target-x="354.87" target-y="187.18"></path><path d="M 367.20 187.18 L 379.53 187.18 L 379.53 668.18 L 367.20 668.18 Z" fill="#d8d135" fill-rule="nonzero" group-id="1,2" node-id="269" stroke="none" target-height="481" target-width="12.329987" target-x="367.2" target-y="187.18"></path><path d="M 379.53 187.18 L 391.86 187.18 L 391.86 668.18 L 379.53 668.18 Z" fill="#d8d035" fill-rule="nonzero" group-id="1,2" node-id="271" stroke="none" target-height="481" target-width="12.329987" target-x="379.53" target-y="187.18"></path><path d="M 391.87 187.18 L 404.20 187.18 L 404.20 668.18 L 391.87 668.18 Z" fill="#d7cf35" fill-rule="nonzero" group-id="1,2" node-id="273" stroke="none" target-height="481" target-width="12.330017" target-x="391.87" target-y="187.18"></path><path d="M 404.20 187.18 L 416.53 187.18 L 416.53 668.18 L 404.20 668.18 Z" fill="#d7ce36" fill-rule="nonzero" group-id="1,2" node-id="275" stroke="none" target-height="481" target-width="12.329987" target-x="404.2" target-y="187.18"></path><path d="M 416.53 187.18 L 428.86 187.18 L 428.86 668.18 L 416.53 668.18 Z" fill="#d6cd36" fill-rule="nonzero" group-id="1,2" node-id="277" stroke="none" target-height="481" target-width="12.329987" target-x="416.53" target-y="187.18"></path><path d="M 428.87 187.18 L 441.20 187.18 L 441.20 668.18 L 428.87 668.18 Z" fill="#d5cc36" fill-rule="nonzero" group-id="1,2" node-id="279" stroke="none" target-height="481" target-width="12.330017" target-x="428.87" target-y="187.18"></path><path d="M 441.20 187.18 L 453.53 187.18 L 453.53 668.18 L 441.20 668.18 Z" fill="#d5cb37" fill-rule="nonzero" group-id="1,2" node-id="281" stroke="none" target-height="481" target-width="12.329987" target-x="441.2" target-y="187.18"></path><path d="M 453.53 187.18 L 465.86 187.18 L 465.86 668.18 L 453.53 668.18 Z" fill="#d4ca37" fill-rule="nonzero" group-id="1,2" node-id="283" stroke="none" target-height="481" target-width="12.329987" target-x="453.53" target-y="187.18"></path><path d="M 465.87 187.18 L 478.20 187.18 L 478.20 668.18 L 465.87 668.18 Z" fill="#d3c937" fill-rule="nonzero" group-id="1,2" node-id="285" stroke="none" target-height="481" target-width="12.330017" target-x="465.87" target-y="187.18"></path><path d="M 478.20 187.18 L 490.53 187.18 L 490.53 668.18 L 478.20 668.18 Z" fill="#d3c838" fill-rule="nonzero" group-id="1,2" node-id="287" stroke="none" target-height="481" target-width="12.329987" target-x="478.2" target-y="187.18"></path><path d="M 490.53 187.18 L 502.86 187.18 L 502.86 668.18 L 490.53 668.18 Z" fill="#d2c738" fill-rule="nonzero" group-id="1,2" node-id="289" stroke="none" target-height="481" target-width="12.329987" target-x="490.53" target-y="187.18"></path><path d="M 502.87 187.18 L 515.20 187.18 L 515.20 668.18 L 502.87 668.18 Z" fill="#d1c638" fill-rule="nonzero" group-id="1,2" node-id="291" stroke="none" target-height="481" target-width="12.330017" target-x="502.87" target-y="187.18"></path><path d="M 515.20 187.18 L 527.53 187.18 L 527.53 668.18 L 515.20 668.18 Z" fill="#d1c539" fill-rule="nonzero" group-id="1,2" node-id="293" stroke="none" target-height="481" target-width="12.330017" target-x="515.2" target-y="187.18"></path><path d="M 527.53 187.18 L 539.86 187.18 L 539.86 668.18 L 527.53 668.18 Z" fill="#d0c439" fill-rule="nonzero" group-id="1,2" node-id="295" stroke="none" target-height="481" target-width="12.329956" target-x="527.53" target-y="187.18"></path><path d="M 539.87 187.18 L 552.20 187.18 L 552.20 668.18 L 539.87 668.18 Z" fill="#cfc339" fill-rule="nonzero" group-id="1,2" node-id="297" stroke="none" target-height="481" target-width="12.330017" target-x="539.87" target-y="187.18"></path><path d="M 552.20 187.18 L 564.53 187.18 L 564.53 668.18 L 552.20 668.18 Z" fill="#cfc23a" fill-rule="nonzero" group-id="1,2" node-id="299" stroke="none" target-height="481" target-width="12.330017" target-x="552.2" target-y="187.18"></path><path d="M 564.53 187.18 L 576.86 187.18 L 576.86 668.18 L 564.53 668.18 Z" fill="#cec13a" fill-rule="nonzero" group-id="1,2" node-id="301" stroke="none" target-height="481" target-width="12.329956" target-x="564.53" target-y="187.18"></path><path d="M 576.87 187.18 L 589.20 187.18 L 589.20 668.18 L 576.87 668.18 Z" fill="#cdc03a" fill-rule="nonzero" group-id="1,2" node-id="303" stroke="none" target-height="481" target-width="12.330017" target-x="576.87" target-y="187.18"></path><path d="M 589.20 187.18 L 601.53 187.18 L 601.53 668.18 L 589.20 668.18 Z" fill="#cdbf3b" fill-rule="nonzero" group-id="1,2" node-id="305" stroke="none" target-height="481" target-width="12.330017" target-x="589.2" target-y="187.18"></path><path d="M 601.53 187.18 L 613.86 187.18 L 613.86 668.18 L 601.53 668.18 Z" fill="#ccbe3b" fill-rule="nonzero" group-id="1,2" node-id="307" stroke="none" target-height="481" target-width="12.329956" target-x="601.53" target-y="187.18"></path><path d="M 613.87 668.18 L 613.87 668.18 Z" fill="#ccbe3b" fill-rule="nonzero" group-id="1,2" node-id="309" stroke="none" target-height="0" target-width="0" target-x="613.87" target-y="668.18"></path></g></g><path d="M 373.37 677.18 C 278.29 677.18 191.48 623.14 149.51 537.84 C 107.53 452.53 117.68 350.78 175.68 275.45 C 222.89 214.07 295.93 178.11 373.37 178.11 C 450.80 178.11 523.84 214.07 571.05 275.45 C 629.05 350.78 639.20 452.53 597.23 537.83 C 555.25 623.14 468.44 677.17 373.37 677.18 Z M 373.37 196.18 C 301.51 196.08 233.70 229.45 189.93 286.44 C 128.27 366.53 125.71 477.37 183.59 560.23 C 241.48 643.10 346.43 678.82 442.85 648.48 C 539.27 618.14 604.86 528.76 604.87 427.68 C 605.04 376.56 588.12 326.84 556.80 286.44 C 513.03 229.45 445.23 196.09 373.37 196.18 Z" fill="#1a1b23" fill-rule="nonzero" group-id="1" node-id="312" stroke="none" target-height="499.0741" target-width="498.97104" target-x="123.87948" target-y="178.10591"></path><path d="M 613.87 427.68 C 613.87 560.50 506.19 668.18 373.37 668.18 C 240.55 668.18 132.87 560.50 132.87 427.68 C 132.87 317.20 207.37 224.12 308.87 195.93 C 351.08 184.26 395.66 184.26 437.87 195.93 C 539.37 224.12 613.87 317.20 613.87 427.68 Z" fill="#ffffff" fill-rule="nonzero" group-id="1" node-id="314" stroke="none" target-height="481.00012" target-width="481" target-x="132.87" target-y="187.17987"></path><path d="M 373.37 677.18 C 278.29 677.18 191.48 623.14 149.51 537.84 C 107.53 452.53 117.68 350.78 175.68 275.45 C 222.89 214.07 295.93 178.11 373.37 178.11 C 450.80 178.11 523.84 214.07 571.05 275.45 C 629.05 350.78 639.20 452.53 597.23 537.83 C 555.25 623.14 468.44 677.17 373.37 677.18 Z M 373.37 196.18 C 301.51 196.08 233.70 229.45 189.93 286.44 C 128.27 366.53 125.71 477.37 183.59 560.23 C 241.48 643.10 346.43 678.82 442.85 648.48 C 539.27 618.14 604.86 528.76 604.87 427.68 C 605.04 376.56 588.12 326.84 556.80 286.44 C 513.03 229.45 445.23 196.09 373.37 196.18 Z" fill="#1a1b23" fill-rule="nonzero" group-id="1" node-id="316" stroke="none" target-height="499.0741" target-width="498.97104" target-x="123.87948" target-y="178.10591"></path><g clip-path="url(#clip-path-2)" group-id="1,3" node-id="318"><path d="M 596.87 361.45 L 386.30 204.18 L 596.87 204.18 L 596.87 361.45 Z" fill="#ffffff" fill-rule="nonzero" group-id="1,3" node-id="320" stroke="none" target-height="157.27002" target-width="210.57" target-x="386.3" target-y="204.18"></path><path d="M 596.87 380.50 L 360.79 204.18 L 386.30 204.18 L 596.87 361.45 L 596.87 380.50 Z" fill="#ffffff" fill-rule="nonzero" group-id="1,3" node-id="322" stroke="none" target-height="176.32" target-width="236.07999" target-x="360.79" target-y="204.18"></path><path d="M 596.87 399.55 L 335.28 204.18 L 360.79 204.18 L 596.87 380.50 L 596.87 399.55 Z" fill="#fefefe" fill-rule="nonzero" group-id="1,3" node-id="324" stroke="none" target-height="195.37" target-width="261.59" target-x="335.28" target-y="204.18"></path><path d="M 596.87 418.61 L 309.77 204.18 L 335.28 204.18 L 596.87 399.55 L 596.87 418.61 Z" fill="#fdfdfd" fill-rule="nonzero" group-id="1,3" node-id="326" stroke="none" target-height="214.43" target-width="287.1" target-x="309.77" target-y="204.18"></path><path d="M 596.87 437.66 L 284.26 204.18 L 309.77 204.18 L 596.87 418.61 L 596.87 437.66 Z" fill="#fcfcfc" fill-rule="nonzero" group-id="1,3" node-id="328" stroke="none" target-height="233.48001" target-width="312.61" target-x="284.26" target-y="204.18"></path><path d="M 596.87 456.71 L 258.75 204.18 L 284.26 204.18 L 596.87 437.66 L 596.87 456.71 Z" fill="#fbfbfb" fill-rule="nonzero" group-id="1,3" node-id="330" stroke="none" target-height="252.53" target-width="338.12" target-x="258.75" target-y="204.18"></path><path d="M 596.87 475.76 L 249.07 216.00 L 257.90 204.18 L 258.75 204.18 L 596.87 456.71 L 596.87 475.76 Z" fill="#fafafa" fill-rule="nonzero" group-id="1,3" node-id="332" stroke="none" target-height="271.58002" target-width="347.8" target-x="249.07" target-y="204.18"></path><path d="M 596.87 494.82 L 239.94 228.23 L 249.07 216.00 L 596.87 475.76 L 596.87 494.82 Z" fill="#f9f9f9" fill-rule="nonzero" group-id="1,3" node-id="334" stroke="none" target-height="278.82" target-width="356.93" target-x="239.94" target-y="216"></path><path d="M 596.87 513.87 L 230.80 240.46 L 239.94 228.23 L 596.87 494.82 L 596.87 513.87 Z" fill="#f8f8f8" fill-rule="nonzero" group-id="1,3" node-id="336" stroke="none" target-height="285.64" target-width="366.07" target-x="230.8" target-y="228.23"></path><path d="M 596.87 515.71 L 588.61 526.76 L 221.67 252.69 L 230.80 240.46 L 596.87 513.87 L 596.87 515.71 Z" fill="#f7f7f7" fill-rule="nonzero" group-id="1,3" node-id="338" stroke="none" target-height="286.3" target-width="375.2" target-x="221.67" target-y="240.46"></path><path d="M 212.54 264.95 L 221.68 252.72 L 588.61 526.82 L 579.47 539.05 Z" fill="#f6f6f6" fill-rule="nonzero" group-id="1,3" node-id="340" stroke-linecap="butt" stroke-width="1" target-height="286.33026" target-width="376.065" target-x="212.54437" target-y="252.72064"></path><path d="M 203.41 277.18 L 212.55 264.94 L 579.47 539.04 L 570.33 551.27 Z" fill="#f5f5f5" fill-rule="nonzero" group-id="1,3" node-id="342" stroke-linecap="butt" stroke-width="1" target-height="286.33026" target-width="376.06494" target-x="203.40845" target-y="264.94434"></path><path d="M 194.28 289.41 L 203.42 277.18 L 570.34 551.27 L 561.20 563.51 Z" fill="#f4f4f4" fill-rule="nonzero" group-id="1,3" node-id="344" stroke-linecap="butt" stroke-width="1" target-height="286.33023" target-width="376.06494" target-x="194.27654" target-y="277.17606"></path><path d="M 185.14 301.63 L 194.28 289.40 L 561.21 563.50 L 552.07 575.73 Z" fill="#f2f2f2" fill-rule="nonzero" group-id="1,3" node-id="346" stroke-linecap="butt" stroke-width="1" target-height="286.33026" target-width="376.065" target-x="185.14063" target-y="289.39978"></path><path d="M 176.00 313.88 L 185.14 301.64 L 552.06 575.74 L 542.93 587.97 Z" fill="#f1f1f1" fill-rule="nonzero" group-id="1,3" node-id="348" stroke-linecap="butt" stroke-width="1" target-height="286.33032" target-width="376.065" target-x="175.99872" target-y="301.64148"></path><path d="M 166.86 326.10 L 176.00 313.87 L 542.93 587.96 L 533.79 600.20 Z" fill="#f0f0f0" fill-rule="nonzero" group-id="1,3" node-id="350" stroke-linecap="butt" stroke-width="1" target-height="286.3303" target-width="376.06494" target-x="166.8628" target-y="313.8652"></path><path d="M 157.73 338.33 L 166.87 326.10 L 533.80 600.19 L 524.66 612.43 Z" fill="#efefef" fill-rule="nonzero" group-id="1,3" node-id="352" stroke-linecap="butt" stroke-width="1" target-height="286.3302" target-width="376.06488" target-x="157.73088" target-y="326.09692"></path><path d="M 524.67 612.37 L 515.53 624.61 L 149.87 351.49 L 149.87 348.83 L 157.72 338.31 L 524.67 612.37 Z" fill="#eeeeee" fill-rule="nonzero" group-id="1,3" node-id="354" stroke="none" target-height="286.3" target-width="374.8" target-x="149.87" target-y="338.31"></path><path d="M 515.53 624.61 L 506.40 636.84 L 149.87 370.54 L 149.87 351.49 L 515.53 624.61 Z" fill="#ededed" fill-rule="nonzero" group-id="1,3" node-id="356" stroke="none" target-height="285.35004" target-width="365.66003" target-x="149.87" target-y="351.49"></path><path d="M 506.40 636.84 L 497.27 649.07 L 149.87 389.60 L 149.87 370.54 L 506.40 636.84 Z" fill="#ececec" fill-rule="nonzero" group-id="1,3" node-id="358" stroke="none" target-height="278.53" target-width="356.53" target-x="149.87" target-y="370.54"></path><path d="M 497.27 649.07 L 495.69 651.18 L 474.58 651.18 L 149.87 408.65 L 149.87 389.60 L 497.27 649.07 Z" fill="#ebebeb" fill-rule="nonzero" group-id="1,3" node-id="360" stroke="none" target-height="261.58" target-width="347.4" target-x="149.87" target-y="389.6"></path><path d="M 449.07 651.18 L 149.87 427.70 L 149.87 408.65 L 474.58 651.18 L 449.07 651.18 Z" fill="#eaeaea" fill-rule="nonzero" group-id="1,3" node-id="362" stroke="none" target-height="242.53" target-width="324.71" target-x="149.87" target-y="408.65"></path><path d="M 423.56 651.18 L 149.87 446.76 L 149.87 427.70 L 449.07 651.18 L 423.56 651.18 Z" fill="#e9e9e9" fill-rule="nonzero" group-id="1,3" node-id="364" stroke="none" target-height="223.47998" target-width="299.2" target-x="149.87" target-y="427.7"></path><path d="M 398.05 651.18 L 149.87 465.81 L 149.87 446.76 L 423.56 651.18 L 398.05 651.18 Z" fill="#e8e8e8" fill-rule="nonzero" group-id="1,3" node-id="366" stroke="none" target-height="204.41998" target-width="273.69" target-x="149.87" target-y="446.76"></path><path d="M 372.54 651.18 L 149.87 484.86 L 149.87 465.81 L 398.05 651.18 L 372.54 651.18 Z" fill="#e7e7e7" fill-rule="nonzero" group-id="1,3" node-id="368" stroke="none" target-height="185.37" target-width="248.18" target-x="149.87" target-y="465.81"></path><path d="M 347.03 651.18 L 149.87 503.92 L 149.87 484.86 L 372.54 651.18 L 347.03 651.18 Z" fill="#e6e6e6" fill-rule="nonzero" group-id="1,3" node-id="370" stroke="none" target-height="166.32" target-width="222.67001" target-x="149.87" target-y="484.86"></path><path d="M 149.87 503.92 L 347.03 651.18 L 149.87 651.18 L 149.87 503.92 Z" fill="#e6e6e6" fill-rule="nonzero" group-id="1,3" node-id="372" stroke="none" target-height="147.25998" target-width="197.16" target-x="149.87" target-y="503.92"></path></g><path d="M 218.85 371.37 C 218.03 371.36 217.27 370.96 216.80 370.28 C 216.34 369.61 216.23 368.75 216.51 367.98 C 228.75 335.72 254.56 315.68 283.87 315.68 C 290.77 315.67 297.62 316.79 304.15 319.00 C 305.46 319.44 306.16 320.87 305.71 322.17 C 305.27 323.48 303.85 324.18 302.54 323.74 C 296.53 321.70 290.22 320.66 283.87 320.67 C 256.69 320.67 232.67 339.47 221.18 369.74 C 220.82 370.72 219.89 371.36 218.85 371.37 Z" fill="#1a1b23" fill-opacity="0.5" fill-rule="nonzero" group-id="1,4" node-id="377" stroke-linecap="butt" stroke-opacity="0.5" stroke-width="1" target-height="55.690002" target-width="89.46663" target-x="216.37492" target-y="315.68"></path><path d="M 287.94 475.89 C 276.04 475.89 264.36 470.33 254.57 459.89 C 243.96 448.55 236.78 432.64 234.34 415.08 C 231.90 397.52 234.48 380.26 241.59 366.46 C 249.13 351.85 260.82 342.76 274.51 340.85 C 288.20 338.94 301.93 344.51 313.16 356.52 C 323.77 367.86 330.95 383.77 333.39 401.33 C 335.83 418.89 333.25 436.15 326.14 449.95 C 318.61 464.56 306.92 473.66 293.22 475.56 C 291.47 475.79 289.71 475.90 287.94 475.89 Z M 279.78 354.46 C 278.66 354.46 277.55 354.53 276.44 354.69 C 256.78 357.42 244.11 383.64 248.21 413.13 C 250.21 427.85 256.14 441.05 264.79 450.30 C 272.79 458.89 282.23 462.93 291.29 461.66 C 300.35 460.39 308.29 453.96 313.69 443.51 C 319.50 432.25 321.57 417.95 319.52 403.22 L 319.52 403.22 C 315.66 375.41 298.24 354.46 279.78 354.46 Z" fill="#1a1b23" fill-rule="nonzero" group-id="1" node-id="380" stroke="none" target-height="135.38348" target-width="100.84238" target-x="233.44382" target-y="340.50653"></path><path d="M 323.08 403.23 L 323.61 409.15 L 323.60 414.77 L 323.08 420.12 L 322.04 425.40 L 320.57 430.18 L 318.70 434.53 L 316.33 438.62 L 313.66 442.07 L 310.68 444.95 L 308.17 446.78 L 305.53 448.20 L 302.74 449.23 L 299.77 449.88 L 296.74 450.06 L 293.78 449.83 L 290.85 449.19 L 287.93 448.11 L 284.28 446.15 L 280.77 443.56 L 277.38 440.27 L 274.39 436.60 L 271.68 432.39 L 269.24 427.61 L 267.27 422.60 L 265.74 417.19 L 264.64 411.35 L 264.10 405.42 L 264.11 399.80 L 264.63 394.45 L 265.67 389.18 L 267.14 384.39 L 269.01 380.04 L 271.38 375.96 L 274.05 372.51 L 277.03 369.62 L 279.54 367.79 L 282.18 366.37 L 284.97 365.34 L 287.94 364.70 L 290.97 364.51 L 293.93 364.74 L 296.86 365.39 L 299.78 366.46 L 303.43 368.42 L 306.94 371.02 L 310.33 374.30 L 313.32 377.98 L 316.04 382.18 L 318.48 386.97 L 320.44 391.97 L 321.98 397.38 L 323.08 403.23 Z" fill="#969693" fill-rule="nonzero" group-id="1" node-id="382" stroke-linecap="butt" stroke-width="0.99999994" target-height="85.552795" target-width="59.511078" target-x="264.10028" target-y="364.51077"></path><path d="M 296.88 453.59 C 289.03 453.59 281.28 449.78 274.77 442.64 C 267.67 434.85 262.83 423.91 261.15 411.84 C 257.63 386.44 269.42 363.74 287.44 361.24 C 305.46 358.74 323.00 377.36 326.53 402.76 L 326.53 402.76 C 330.05 428.15 318.26 450.85 300.24 453.35 C 299.13 453.51 298.00 453.59 296.88 453.59 Z M 290.79 368.00 C 289.99 368.00 289.19 368.05 288.40 368.16 C 274.21 370.16 265.09 389.29 268.09 410.86 C 269.57 421.55 273.78 431.15 279.95 437.91 C 285.78 444.31 292.64 447.33 299.27 446.41 C 313.47 444.41 322.59 425.28 319.59 403.71 C 316.76 383.36 304.14 368.00 290.79 368.00 Z" fill="#1a1b23" fill-rule="nonzero" group-id="1" node-id="384" stroke="none" target-height="92.56424" target-width="66.510864" target-x="260.58453" target-y="361.02576"></path><path d="M 526.28 371.37 C 525.24 371.37 524.32 370.72 523.95 369.75 C 512.46 339.48 488.44 320.68 461.26 320.68 C 454.91 320.67 448.60 321.71 442.59 323.75 C 441.28 324.19 439.86 323.48 439.42 322.17 C 438.98 320.86 439.69 319.44 441.00 319.00 C 447.53 316.79 454.38 315.67 461.28 315.67 C 490.59 315.67 516.40 335.67 528.64 367.97 C 528.92 368.74 528.81 369.60 528.35 370.27 C 527.88 370.95 527.12 371.35 526.30 371.36 Z" fill="#1a1b23" fill-opacity="0.5" fill-rule="nonzero" group-id="1,5" node-id="388" stroke-linecap="butt" stroke-opacity="0.5" stroke-width="1" target-height="55.69998" target-width="89.477356" target-x="439.29773" target-y="315.67"></path><path d="M 457.19 475.89 C 455.42 475.89 453.66 475.77 451.91 475.53 C 438.21 473.63 426.52 464.53 418.99 449.92 C 411.88 436.12 409.30 418.85 411.74 401.30 L 418.67 402.30 L 411.74 401.30 C 414.18 383.74 421.36 367.83 431.97 356.49 C 443.20 344.49 456.92 338.93 470.62 340.82 C 484.32 342.71 496.00 351.82 503.54 366.43 C 510.65 380.23 513.23 397.50 510.79 415.05 C 508.35 432.60 501.17 448.52 490.56 459.86 C 480.77 470.32 469.09 475.89 457.19 475.89 Z M 465.35 354.46 C 446.88 354.46 429.47 375.46 425.61 403.22 L 425.61 403.22 C 423.56 417.95 425.61 432.22 431.44 443.51 C 436.82 453.96 444.78 460.40 453.83 461.66 C 462.88 462.92 472.30 458.89 480.33 450.30 C 488.99 441.05 494.88 427.85 496.92 413.13 C 498.96 398.41 496.92 384.13 491.09 372.84 C 485.71 362.39 477.75 355.95 468.69 354.69 C 467.58 354.53 466.47 354.46 465.35 354.46 Z" fill="#1a1b23" fill-rule="nonzero" group-id="1" node-id="391" stroke="none" target-height="135.40857" target-width="100.84247" target-x="410.84375" target-y="340.48145"></path><path d="M 457.23 364.72 L 460.19 365.37 L 462.98 366.40 L 465.62 367.82 L 468.14 369.65 L 471.12 372.53 L 473.79 375.98 L 476.16 380.07 L 478.03 384.42 L 479.50 389.21 L 480.54 394.48 L 481.06 399.83 L 481.07 405.45 L 480.53 411.38 L 479.43 417.22 L 477.89 422.63 L 475.93 427.63 L 473.49 432.42 L 470.77 436.63 L 467.79 440.30 L 464.39 443.59 L 460.88 446.18 L 457.23 448.14 L 454.31 449.22 L 451.39 449.86 L 448.42 450.09 L 445.39 449.91 L 442.43 449.26 L 439.64 448.23 L 437.00 446.81 L 434.48 444.98 L 431.51 442.10 L 428.83 438.65 L 426.46 434.56 L 424.59 430.21 L 423.13 425.42 L 422.08 420.15 L 421.56 414.80 L 421.55 409.18 L 422.09 403.26 L 423.19 397.41 L 424.73 392.00 L 426.69 387.00 L 429.13 382.21 L 431.85 378.00 L 434.83 374.33 L 438.23 371.04 L 441.74 368.45 L 445.39 366.49 L 448.31 365.41 L 451.23 364.77 L 454.20 364.54 L 457.23 364.72 Z" fill="#969693" fill-rule="nonzero" group-id="1" node-id="393" stroke-linecap="butt" stroke-width="0.99999994" target-height="85.552734" target-width="59.511047" target-x="421.55453" target-y="364.53906"></path><path d="M 448.25 453.59 C 447.13 453.59 446.00 453.51 444.89 453.35 C 435.89 452.11 428.25 445.98 423.32 436.11 C 418.60 426.67 416.93 414.83 418.60 402.76 L 418.60 402.76 C 420.28 390.69 425.12 379.76 432.23 371.95 C 439.66 363.80 448.70 359.95 457.69 361.24 C 466.68 362.53 474.33 368.61 479.27 378.49 C 483.98 387.92 485.65 399.77 483.98 411.84 C 482.31 423.91 477.46 434.84 470.36 442.64 C 463.84 449.78 456.10 453.59 448.25 453.59 Z M 454.37 368.00 C 448.49 368.00 442.55 371.00 437.37 376.66 C 431.20 383.42 426.99 393.03 425.51 403.71 L 425.51 403.71 C 424.02 414.39 425.46 424.78 429.51 432.97 C 433.38 440.72 439.16 445.49 445.79 446.41 C 452.42 447.33 459.28 444.31 465.11 437.91 C 471.28 431.15 475.49 421.55 476.97 410.86 C 478.45 400.17 476.97 389.79 472.97 381.60 C 469.10 373.86 463.32 369.08 456.69 368.16 C 455.92 368.05 455.15 368.00 454.37 368.00 Z" fill="#1a1b23" fill-rule="nonzero" group-id="1" node-id="395" stroke="none" target-height="92.58951" target-width="66.512726" target-x="418.03384" target-y="361.0005"></path><path d="M 372.67 535.18 C 356.19 535.18 340.52 528.86 330.76 518.28 C 329.82 517.26 329.89 515.68 330.90 514.75 C 331.92 513.81 333.50 513.87 334.44 514.89 C 343.27 524.46 357.56 530.18 372.67 530.18 C 387.78 530.18 401.87 524.54 410.67 515.09 C 411.61 514.08 413.20 514.03 414.20 514.98 C 415.21 515.92 415.26 517.50 414.32 518.51 C 404.44 529.10 389.25 535.18 372.67 535.18 Z" fill="#1a1b23" fill-opacity="0.5" fill-rule="nonzero" group-id="1,6" node-id="399" stroke-linecap="butt" stroke-opacity="0.5" stroke-width="1" target-height="21.094604" target-width="84.89426" target-x="330.10037" target-y="514.0854"></path><path d="M 249.54 591.08 C 240.54 591.08 231.12 586.81 224.37 578.77 C 219.04 572.57 216.12 564.67 216.14 556.50 C 216.01 548.85 219.33 541.54 225.19 536.62 C 231.06 531.70 238.82 529.68 246.34 531.13 C 254.40 532.53 261.69 536.79 266.86 543.13 L 266.86 543.13 C 278.12 556.53 277.75 575.45 266.04 585.29 C 261.40 589.11 255.55 591.17 249.54 591.08 Z M 241.68 534.76 C 236.61 534.69 231.67 536.44 227.77 539.68 C 222.87 543.91 220.08 550.08 220.14 556.56 C 220.13 563.77 222.72 570.74 227.43 576.20 C 237.27 587.92 253.43 590.60 263.43 582.20 C 273.43 573.80 273.61 557.39 263.77 545.67 C 259.21 540.09 252.78 536.33 245.68 535.10 C 244.36 534.88 243.02 534.77 241.68 534.76 Z" fill="#1a1b23" fill-rule="nonzero" group-id="1" node-id="402" stroke="none" target-height="60.387512" target-width="58.92375" target-x="216.14" target-y="530.6925"></path><path d="M 243.17 588.38 C 241.69 588.38 240.21 588.21 238.77 587.89 C 227.23 584.86 218.86 574.89 217.88 563.00 C 217.62 557.32 219.58 552.43 223.39 549.22 C 225.40 547.54 227.81 546.41 230.39 545.96 C 237.79 544.61 246.39 548.27 252.27 555.29 C 258.15 562.31 260.27 571.40 257.68 578.46 C 256.80 580.94 255.27 583.13 253.26 584.83 C 250.42 587.17 246.85 588.43 243.17 588.38 Z M 233.60 549.69 C 232.78 549.69 231.96 549.76 231.15 549.91 C 229.25 550.24 227.48 551.07 226.00 552.30 C 223.17 554.68 221.71 558.42 221.92 562.83 C 222.80 572.91 229.88 581.36 239.64 584.00 C 243.95 585.00 247.89 584.18 250.72 581.80 C 252.20 580.55 253.32 578.93 253.97 577.10 C 256.09 571.37 254.24 563.83 249.25 557.89 L 249.25 557.89 C 244.93 552.72 239.00 549.69 233.60 549.69 Z" fill="#1a1b23" fill-rule="nonzero" group-id="1" node-id="404" stroke="none" target-height="42.683777" target-width="40.855164" target-x="217.88" target-y="545.6962"></path><path d="M 250.78 556.58 L 252.98 559.46 L 254.73 562.25 L 256.09 564.97 L 257.14 567.82 L 257.73 570.33 L 257.90 572.57 L 257.65 574.75 L 256.95 576.44 L 255.85 577.77 L 254.35 578.63 L 252.56 579.02 L 250.37 578.90 L 248.20 578.34 L 245.82 577.33 L 243.19 575.80 L 240.75 573.99 L 238.31 571.78 L 235.85 569.13 L 233.66 566.25 L 231.90 563.46 L 230.55 560.74 L 229.49 557.89 L 228.91 555.38 L 228.73 553.14 L 228.99 550.96 L 229.68 549.27 L 230.79 547.94 L 232.29 547.08 L 234.08 546.69 L 236.27 546.81 L 238.44 547.37 L 240.82 548.38 L 243.44 549.91 L 245.88 551.72 L 248.33 553.93 L 250.78 556.58 Z" fill="#969693" fill-rule="nonzero" group-id="1" node-id="406" stroke-linecap="butt" stroke-width="1" target-height="32.337585" target-width="29.173523" target-x="228.73038" target-y="546.6868"></path><path d="M 253.08 580.00 C 246.49 580.00 239.40 576.44 234.32 570.39 C 228.43 563.39 226.32 554.28 228.91 547.23 L 229.31 546.16 L 230.43 545.95 C 237.83 544.60 246.43 548.26 252.31 555.28 L 252.31 555.28 C 258.21 562.28 260.31 571.39 257.72 578.45 L 257.33 579.51 L 256.21 579.72 C 255.18 579.91 254.13 580.00 253.08 580.00 Z M 232.31 549.73 C 230.79 555.30 232.71 562.26 237.38 567.82 C 242.05 573.38 248.59 576.47 254.38 575.94 C 255.89 570.37 253.97 563.41 249.30 557.85 L 249.30 557.85 C 244.58 552.31 238.05 549.22 232.31 549.75 Z" fill="#1a1b23" fill-rule="nonzero" group-id="1" node-id="408" stroke="none" target-height="34.31372" target-width="30.927032" target-x="227.8526" target-y="545.6863"></path><path d="M 510.93 542.14 C 507.75 542.15 504.60 541.53 501.65 540.34 C 494.60 537.39 489.22 531.48 486.93 524.19 C 481.90 508.14 488.96 490.78 503.77 482.80 C 510.50 479.18 518.48 478.71 525.58 481.52 C 539.75 487.28 545.92 505.17 539.32 521.38 C 534.12 534.15 522.54 542.14 510.93 542.14 Z M 516.25 483.70 C 512.53 483.73 508.88 484.64 505.58 486.36 C 499.19 489.71 494.22 495.26 491.58 501.98 L 491.58 501.98 C 488.77 508.62 488.46 516.05 490.68 522.91 C 492.61 529.09 497.16 534.11 503.12 536.63 C 515.25 541.56 529.81 534.05 535.57 519.88 C 541.33 505.71 536.16 490.16 524.03 485.22 C 521.56 484.21 518.92 483.70 516.25 483.70 Z" fill="#1a1b23" fill-rule="nonzero" group-id="1" node-id="410" stroke="none" target-height="62.390198" target-width="56.594177" target-x="485.35602" target-y="479.74982"></path><path d="M 519.20 537.12 C 517.30 537.12 515.41 536.76 513.65 536.04 C 511.21 535.05 509.08 533.42 507.48 531.33 C 502.83 525.43 502.06 516.12 505.48 507.63 L 505.48 507.63 C 508.93 499.14 515.98 493.02 523.48 492.03 C 526.09 491.66 528.75 491.99 531.19 492.97 C 540.51 496.76 544.19 509.51 539.33 521.38 C 535.42 531.00 527.15 537.12 519.20 537.12 Z M 509.20 509.12 C 506.28 516.30 506.84 524.04 510.62 528.84 C 511.79 530.38 513.36 531.58 515.15 532.32 C 522.43 535.32 531.61 529.69 535.60 519.86 C 539.59 510.03 536.94 499.62 529.66 496.66 C 527.86 495.95 525.91 495.72 524.00 496.00 C 517.94 496.80 512.14 501.95 509.21 509.14 Z" fill="#1a1b23" fill-rule="nonzero" group-id="1" node-id="412" stroke="none" target-height="45.227753" target-width="38.073547" target-x="503.37726" target-y="491.89224"></path><path d="M 523.75 494.03 L 525.21 494.96 L 526.39 496.36 L 527.30 498.35 L 527.82 500.53 L 528.04 503.11 L 527.91 506.14 L 527.45 509.14 L 526.64 512.34 L 525.44 515.75 L 523.92 519.03 L 522.27 521.89 L 520.50 524.36 L 518.47 526.62 L 516.52 528.31 L 514.63 529.51 L 512.58 530.30 L 510.76 530.48 L 509.06 530.12 L 507.60 529.20 L 506.42 527.80 L 505.51 525.80 L 504.99 523.62 L 504.77 521.05 L 504.90 518.01 L 505.36 515.01 L 506.17 511.81 L 507.38 508.40 L 508.89 505.12 L 510.54 502.26 L 512.31 499.80 L 514.34 497.53 L 516.29 495.84 L 518.19 494.64 L 520.23 493.85 L 522.06 493.67 L 523.75 494.03 Z" fill="#969693" fill-rule="nonzero" group-id="1" node-id="414" stroke-linecap="butt" stroke-width="1" target-height="36.807526" target-width="23.267944" target-x="504.77203" target-y="493.6724"></path><path d="M 508.19 532.23 L 507.48 531.34 C 502.83 525.43 502.06 516.12 505.48 507.63 L 505.48 507.63 C 508.93 499.14 515.98 493.02 523.48 492.03 L 524.61 491.88 L 525.32 492.78 C 529.97 498.69 530.74 507.99 527.32 516.48 C 523.90 524.97 516.81 531.10 509.32 532.08 Z M 509.19 509.14 C 506.46 515.86 506.77 523.08 509.92 527.91 C 515.56 526.65 520.82 521.70 523.55 514.98 C 526.28 508.26 525.98 500.98 522.82 496.20 C 517.19 497.46 511.93 502.41 509.19 509.14 Z" fill="#1a1b23" fill-rule="nonzero" group-id="1" node-id="416" stroke="none" target-height="40.349976" target-width="26.04544" target-x="503.37723" target-y="491.88"></path><path d="M 372.87 626.68 C 358.01 626.68 346.37 619.43 346.37 610.18 C 346.37 600.93 358.01 593.68 372.87 593.68 C 387.73 593.68 399.37 600.92 399.37 610.18 C 399.37 619.44 387.72 626.68 372.87 626.68 Z M 372.87 598.68 C 361.21 598.68 351.37 603.94 351.37 610.18 C 351.37 616.42 361.21 621.68 372.87 621.68 C 384.53 621.68 394.37 616.41 394.37 610.18 C 394.37 603.95 384.52 598.68 372.87 598.68 Z" fill="#1a1b23" fill-opacity="0.5" fill-rule="nonzero" group-id="1,7" node-id="420" stroke-linecap="butt" stroke-opacity="0.5" stroke-width="1" target-height="33" target-width="53" target-x="346.37" target-y="593.68"></path><path d="M 389.37 278.51 C 376.75 278.51 366.87 272.29 366.87 264.34 C 366.87 256.39 376.75 250.18 389.37 250.18 C 401.99 250.18 411.87 256.40 411.87 264.34 C 411.87 272.28 402.00 278.51 389.37 278.51 Z M 389.37 255.18 C 381.09 255.18 371.87 258.94 371.87 264.34 C 371.87 269.74 381.09 273.51 389.37 273.51 C 397.65 273.51 406.87 269.75 406.87 264.34 C 406.87 258.93 397.64 255.18 389.37 255.18 Z" fill="#1a1b23" fill-opacity="0.5" fill-rule="nonzero" group-id="1,8" node-id="425" stroke-linecap="butt" stroke-opacity="0.5" stroke-width="1" target-height="28.330017" target-width="45" target-x="366.87" target-y="250.18"></path><path d="M 175.23 426.00 C 174.72 426.00 174.22 425.96 173.72 425.89 L 173.72 425.89 C 169.10 425.25 165.26 421.75 162.91 416.04 C 158.61 403.91 160.48 390.44 167.91 379.93 C 171.72 375.08 176.37 372.75 180.99 373.40 C 185.61 374.05 189.45 377.54 191.80 383.25 C 196.10 395.38 194.23 408.85 186.80 419.36 C 183.40 423.72 179.35 426.00 175.23 426.00 Z M 179.52 378.30 C 176.97 378.30 174.28 379.95 171.86 383.02 C 165.53 392.11 163.92 403.67 167.54 414.14 C 169.18 418.14 171.62 420.55 174.41 420.94 L 174.41 420.94 C 177.19 421.32 180.20 419.67 182.87 416.27 C 189.19 407.18 190.79 395.62 187.19 385.15 C 185.55 381.15 183.11 378.74 180.32 378.35 C 180.05 378.32 179.79 378.32 179.52 378.33 Z" fill="#1a1b23" fill-opacity="0.5" fill-rule="nonzero" group-id="1,9" node-id="430" stroke-linecap="butt" stroke-opacity="0.5" stroke-width="1" target-height="52.677795" target-width="33.421295" target-x="160.6449" target-y="373.3222"></path><path d="M 561.00 608.56 L 542.75 598.64 C 543.98 597.42 545.21 596.19 546.41 594.94 C 576.82 563.43 598.11 524.25 608.00 481.59 C 608.39 479.91 608.76 478.21 609.11 476.51 L 627.36 486.42 C 632.27 489.10 634.68 494.82 633.16 500.21 C 622.17 539.31 602.53 575.43 575.70 605.92 C 572.01 610.11 565.92 611.21 561.00 608.56 Z" fill="#ffffff" fill-rule="nonzero" group-id="1" node-id="433" stroke="none" target-height="133.47437" target-width="90.84973" target-x="542.75" target-y="476.51"></path><path d="M 566.71 619.00 C 563.22 618.99 559.78 618.11 556.71 616.44 L 527.82 600.74 L 536.43 592.22 C 537.61 591.05 538.79 589.87 539.94 588.67 C 569.22 558.33 589.71 520.61 599.24 479.54 C 599.62 477.90 599.97 476.27 600.31 474.64 L 602.78 462.79 L 631.67 478.49 C 640.30 483.15 644.53 493.18 641.83 502.61 C 630.48 543.00 610.20 580.33 582.49 611.84 C 578.51 616.39 572.76 619.00 566.71 619.00 Z M 557.41 596.34 L 565.28 600.62 C 566.51 601.32 568.06 601.06 569.00 600.00 C 594.92 570.52 613.90 535.60 624.52 497.81 C 624.90 496.47 624.31 495.04 623.09 494.36 L 615.22 490.09 C 604.91 529.70 585.08 566.19 557.46 596.40 Z" fill="#1a1b23" fill-rule="nonzero" group-id="1" node-id="435" stroke="none" target-height="156.20999" target-width="114.81329" target-x="527.82" target-y="462.79"></path><path d="M 629.02 513.49 L 626.64 517.89 L 602.03 504.52 L 604.42 500.12 Z" fill="#afafaa" fill-rule="nonzero" group-id="1" node-id="437" stroke-linecap="butt" stroke-width="1" target-height="17.762268" target-width="26.989502" target-x="602.0331" target-y="500.1231"></path><path d="M 624.73 521.40 L 619.96 530.19 L 595.36 516.82 L 600.13 508.03 Z" fill="#afafaa" fill-rule="nonzero" group-id="1" node-id="439" stroke-linecap="butt" stroke-width="1" target-height="22.155518" target-width="29.376831" target-x="595.3563" target-y="508.03033"></path><path d="M 585.12 594.32 L 582.73 598.71 L 558.13 585.34 L 560.51 580.95 Z" fill="#afafaa" fill-rule="nonzero" group-id="1" node-id="441" stroke-linecap="butt" stroke-width="1" target-height="17.76233" target-width="26.989502" target-x="558.12683" target-y="580.95044"></path><path d="M 592.67 582.49 L 587.90 591.28 L 563.29 577.91 L 568.07 569.12 Z" fill="#afafaa" fill-rule="nonzero" group-id="1" node-id="443" stroke-linecap="butt" stroke-width="1" target-height="22.155579" target-width="29.376892" target-x="563.2944" target-y="569.124"></path><path d="M 566.71 619.00 C 563.22 618.99 559.78 618.11 556.71 616.44 L 527.82 600.74 L 536.43 592.22 C 537.61 591.05 538.79 589.87 539.94 588.67 C 569.22 558.33 589.71 520.61 599.24 479.54 C 599.62 477.90 599.97 476.27 600.31 474.64 L 602.78 462.79 L 631.67 478.49 C 640.30 483.15 644.53 493.18 641.83 502.61 C 630.48 543.00 610.20 580.33 582.49 611.84 C 578.51 616.39 572.76 619.00 566.71 619.00 Z M 557.41 596.34 L 565.28 600.62 C 566.51 601.32 568.06 601.06 569.00 600.00 C 594.92 570.52 613.90 535.60 624.52 497.81 C 624.90 496.47 624.31 495.04 623.09 494.36 L 615.22 490.09 C 604.91 529.70 585.08 566.19 557.46 596.40 Z" fill="#1a1b23" fill-rule="nonzero" group-id="1" node-id="445" stroke="none" target-height="156.20999" target-width="114.81329" target-x="527.82" target-y="462.79"></path><path d="M 622.62 412.81 C 645.82 423.34 668.15 435.72 689.38 449.81 C 700.16 456.99 710.45 464.90 720.16 473.48 C 725.13 477.89 729.83 482.60 734.23 487.58 C 736.46 490.10 738.63 492.73 740.68 495.51 C 742.80 498.31 744.75 501.23 746.53 504.26 C 750.49 510.76 753.21 517.94 754.53 525.44 C 755.22 529.60 755.31 533.84 754.81 538.03 C 754.27 542.39 753.03 546.64 751.13 550.61 C 749.28 554.51 746.88 558.11 744.00 561.33 C 741.30 564.34 738.28 567.06 735.00 569.42 C 728.96 573.76 722.39 577.31 715.45 580.00 C 702.16 585.27 688.79 588.00 675.56 589.92 C 668.93 590.85 662.33 591.53 655.75 592.05 C 652.45 592.31 649.17 592.51 645.89 592.68 C 642.61 592.85 639.32 592.95 636.06 593.01 C 629.51 593.17 622.98 593.17 616.47 593.07 L 611.59 592.98 L 606.73 592.81 L 596.99 592.45 C 584.05 591.72 571.13 590.73 558.31 589.30 C 555.10 588.95 551.88 588.64 548.68 588.24 L 539.09 587.00 C 532.67 586.26 526.33 585.20 519.95 584.28 C 513.57 583.36 507.26 582.20 500.90 581.16 L 482.00 577.62 C 431.67 567.60 382.03 554.37 333.39 538.00 C 284.68 521.84 237.08 502.49 190.91 480.08 C 179.34 474.47 167.91 468.54 156.57 462.42 C 153.72 460.93 150.92 459.30 148.10 457.75 L 139.67 453.00 L 131.31 448.08 C 128.53 446.45 125.74 444.82 123.00 443.08 L 114.73 438.00 C 111.97 436.32 109.27 434.50 106.54 432.76 C 101.07 429.29 95.69 425.64 90.34 421.96 C 84.99 418.28 79.72 414.43 74.49 410.50 C 69.26 406.57 64.11 402.50 59.03 398.34 C 48.68 389.93 38.94 380.79 29.88 371.00 C 25.21 365.92 20.85 360.58 16.80 355.00 L 15.27 352.86 L 13.79 350.64 C 12.79 349.18 11.86 347.64 10.94 346.09 C 10.02 344.54 9.15 342.91 8.26 341.32 L 7.00 338.85 C 6.58 338.02 6.18 337.18 5.81 336.30 C 4.21 332.77 2.90 329.12 1.89 325.38 C 0.79 321.39 0.15 317.28 0.00 313.14 C -0.18 308.75 0.29 304.35 1.39 300.09 C 2.54 295.80 4.37 291.71 6.82 288.00 C 9.14 284.48 11.93 281.30 15.11 278.53 C 18.05 275.96 21.24 273.70 24.63 271.78 C 30.90 268.28 37.57 265.56 44.49 263.68 C 51.01 261.89 57.64 260.56 64.34 259.68 C 70.92 258.80 77.46 258.21 83.97 257.95 C 96.87 257.44 109.79 257.69 122.66 258.69 C 148.06 260.67 173.27 264.52 198.10 270.21 C 172.77 269.21 147.51 268.75 122.55 270.14 C 110.16 270.79 97.81 272.07 85.55 273.96 C 73.47 275.96 61.55 278.56 50.83 282.83 C 45.71 284.78 40.84 287.33 36.31 290.41 C 32.51 292.94 29.37 296.33 27.16 300.32 C 25.42 303.75 24.80 307.65 25.39 311.45 C 26.12 316.04 27.71 320.45 30.07 324.45 C 32.74 329.14 35.85 333.57 39.36 337.67 C 43.06 342.07 47.01 346.25 51.19 350.19 C 59.93 358.32 69.17 365.90 78.85 372.88 C 83.73 376.45 88.71 379.93 93.79 383.30 C 98.87 386.68 104.01 389.99 109.25 393.17 L 117.10 397.97 C 119.70 399.60 122.40 401.09 125.04 402.66 C 127.68 404.23 130.32 405.79 133.04 407.27 L 141.12 411.75 C 162.73 423.62 184.99 434.51 207.55 444.80 C 252.89 465.23 299.24 483.32 346.43 499.00 C 393.64 514.79 441.55 528.53 489.96 539.50 C 514.17 544.96 538.51 549.66 562.96 553.42 C 587.41 557.18 611.90 559.89 636.24 560.75 C 648.29 561.23 660.35 561.09 672.38 560.33 C 678.31 559.89 684.17 559.25 689.89 558.33 C 695.49 557.47 701.02 556.23 706.45 554.62 C 711.46 553.18 716.26 551.12 720.76 548.49 C 724.52 546.36 727.73 543.37 730.12 539.77 C 732.23 536.28 733.18 532.21 732.83 528.15 C 732.39 523.11 731.03 518.19 728.83 513.63 C 727.68 511.07 726.37 508.58 724.92 506.17 C 723.47 503.70 721.86 501.26 720.16 498.85 C 716.66 493.97 712.90 489.28 708.90 484.80 C 700.63 475.61 691.82 466.93 682.50 458.80 C 663.68 442.40 643.36 427.38 622.62 412.81 Z" fill="#db3a3a" fill-opacity="0.5" fill-rule="nonzero" group-id="1,10" node-id="449" stroke-linecap="butt" stroke-opacity="0.5" stroke-width="1" target-height="335.44214" target-width="755.1122" target-x="0" target-y="257.69537"></path><path d="M 558.93 420.00 C 558.22 420.00 557.51 419.92 556.82 419.75 C 553.20 418.91 550.39 416.02 548.88 411.62 C 547.50 407.18 547.38 402.44 548.52 397.93 C 550.99 387.35 558.52 380.36 565.61 382.02 C 572.70 383.68 576.38 393.27 573.91 403.85 C 571.69 413.42 565.37 420.00 558.93 420.00 Z M 563.48 386.77 C 559.48 386.77 555.02 392.06 553.39 399.06 C 552.46 402.66 552.54 406.45 553.62 410.01 C 554.15 411.57 555.43 414.30 557.95 414.88 C 562.18 415.88 567.27 410.30 569.04 402.71 C 570.81 395.12 568.72 387.88 564.48 386.89 C 564.15 386.82 563.82 386.80 563.48 386.81 Z" fill="#1a1b23" fill-opacity="0.5" fill-rule="nonzero" group-id="1,11" node-id="454" stroke-linecap="butt" stroke-opacity="0.5" stroke-width="1" target-height="38.213257" target-width="26.921509" target-x="547.75684" target-y="381.78674"></path><path d="M 253.46 186.62 L 272.88 209.51 C 233.14 227.93 199.15 256.79 174.51 293.00 L 155.09 270.11 C 180.74 234.83 214.47 206.21 253.46 186.66 Z" fill="#e5e52e" fill-rule="nonzero" group-id="1" node-id="457" stroke="none" target-height="106.380005" target-width="117.79001" target-x="155.09" target-y="186.62"></path><path d="M 175.31 307.81 L 143.66 270.51 L 147.80 264.79 C 174.31 228.34 209.15 198.78 249.43 178.56 L 255.75 175.41 L 287.40 212.71 L 276.65 217.71 C 238.43 235.43 205.72 263.18 182.00 298.00 Z M 166.59 269.71 L 173.91 278.34 C 196.41 248.39 225.33 223.85 258.54 206.52 L 251.23 197.90 C 218.25 215.58 189.40 240.05 166.59 269.71 Z" fill="#1a1b23" fill-rule="nonzero" group-id="1" node-id="459" stroke="none" target-height="132.4" target-width="143.73999" target-x="143.66" target-y="175.41"></path><path d="M 250.24 193.64 C 251.43 195.05 249.82 198.64 246.08 203.72 C 239.78 212.23 227.41 224.81 212.21 237.72 C 197.01 250.63 182.59 260.77 173.21 265.60 C 167.62 268.47 163.78 269.47 162.59 268.06 C 159.37 264.27 176.39 244.54 200.59 224.00 C 224.79 203.46 247.00 189.85 250.24 193.64 Z" fill="#ffffff" fill-rule="nonzero" group-id="1" node-id="461" stroke="none" target-height="75.68434" target-width="88.3383" target-x="162.24275" target-y="193.01024"></path><path d="M 164.31 270.67 C 163.07 270.75 161.85 270.26 161.02 269.33 C 159.38 267.40 158.89 263.57 169.75 250.98 C 178.88 240.76 188.74 231.22 199.27 222.45 C 211.06 212.45 222.77 203.75 232.27 197.97 C 246.46 189.31 250.16 190.41 251.80 192.34 L 251.80 192.34 C 253.73 194.62 252.48 198.50 247.73 204.91 C 241.09 213.91 228.31 226.70 213.55 239.23 C 198.79 251.76 184.04 262.23 174.12 267.36 C 169.76 269.58 166.57 270.67 164.31 270.67 Z M 164.13 266.67 C 164.74 266.67 166.84 266.59 172.26 263.81 C 181.92 258.86 196.37 248.53 210.92 236.19 C 225.47 223.85 238.01 211.27 244.47 202.54 C 248.10 197.65 248.57 195.60 248.62 194.99 C 244.95 194.28 226.73 204.41 201.86 225.51 C 176.99 246.61 164.00 262.92 164.13 266.66 Z" fill="#1a1b23" fill-rule="nonzero" group-id="1" node-id="463" stroke="none" target-height="79.678894" target-width="92.49902" target-x="160.16501" target-y="190.99112"></path><path d="M 246.08 203.74 L 246.15 204.20 L 245.72 205.24 L 244.22 207.36 L 241.54 210.47 L 237.23 214.96 L 232.34 219.73 L 226.20 225.44 L 219.63 231.32 L 212.21 237.72 L 204.69 243.99 L 197.82 249.52 L 191.18 254.65 L 185.68 258.70 L 180.55 262.21 L 177.04 264.36 L 174.71 265.49 L 173.61 265.74 L 173.17 265.60 L 173.10 265.13 L 173.53 264.10 L 175.02 261.98 L 177.71 258.87 L 182.02 254.38 L 186.91 249.61 L 193.05 243.90 L 199.62 238.02 L 207.04 231.62 L 214.56 225.34 L 221.43 219.82 L 228.07 214.69 L 233.57 210.64 L 238.70 207.13 L 242.21 204.98 L 244.54 203.85 L 245.64 203.59 L 246.08 203.74 Z" fill="#969693" fill-rule="nonzero" group-id="1" node-id="465" stroke-linecap="butt" stroke-width="1" target-height="62.149277" target-width="73.0564" target-x="173.09677" target-y="203.59456"></path><path d="M 166.47 271.27 L 171.56 264.39 C 178.20 255.39 190.98 242.60 205.74 230.08 C 220.50 217.56 235.25 207.03 245.17 201.94 L 252.78 198.03 L 247.69 204.91 C 241.05 213.91 228.27 226.70 213.51 239.23 C 198.75 251.76 184.00 262.23 174.08 267.36 Z M 237.10 211.34 C 217.12 224.81 198.69 240.46 182.15 258.00 C 192.17 251.33 201.78 244.06 210.92 236.22 C 220.14 228.47 228.89 220.16 237.10 211.34 Z" fill="#1a1b23" fill-rule="nonzero" group-id="1" node-id="467" stroke="none" target-height="73.23999" target-width="86.31" target-x="166.47" target-y="198.03"></path><path d="M 225.26 269.69 C 213.26 279.24 202.35 286.69 194.71 290.58 C 189.12 293.45 185.28 294.45 184.09 293.04 L 162.74 267.88 C 163.93 269.29 167.74 268.29 173.36 265.42 C 182.78 260.59 197.21 250.42 212.36 237.54 C 227.51 224.66 239.93 212.07 246.23 203.54 C 249.97 198.49 251.58 194.87 250.39 193.46 L 271.74 218.62 C 272.93 220.03 271.32 223.62 267.58 228.70 C 262.47 235.60 253.36 245.18 241.99 255.44" fill="#ffffff" fill-rule="nonzero" group-id="1" node-id="469" stroke="none" target-height="100.21452" target-width="109.34105" target-x="162.74" target-y="193.46"></path><path d="M 225.26 269.69 C 220.26 274.32 215.07 278.69 209.63 282.86 C 206.89 284.91 204.13 286.93 201.23 288.78 C 198.34 290.72 195.31 292.45 192.16 293.94 C 190.46 294.77 188.65 295.36 186.78 295.69 C 186.17 295.78 185.56 295.78 184.95 295.69 C 184.56 295.63 184.19 295.53 183.82 295.39 C 183.37 295.19 182.95 294.91 182.60 294.56 L 182.47 294.42 L 182.41 294.35 L 182.30 294.23 L 182.09 293.99 L 181.67 293.51 L 180.84 292.51 L 177.49 288.68 L 174.19 284.80 C 169.82 279.61 165.50 274.37 161.44 268.91 L 161.44 268.91 L 164.03 266.72 C 164.03 266.66 163.94 266.72 164.03 266.72 C 164.17 266.76 164.31 266.78 164.45 266.77 C 164.93 266.75 165.40 266.68 165.86 266.56 C 166.96 266.27 168.03 265.89 169.07 265.43 C 171.27 264.45 173.41 263.34 175.47 262.10 C 179.68 259.67 183.77 256.96 187.78 254.10 C 195.78 248.42 203.55 242.38 211.09 235.98 C 218.64 229.64 225.93 222.98 232.88 216.04 C 236.35 212.57 239.71 208.98 242.83 205.23 C 244.40 203.40 245.86 201.47 247.20 199.47 C 247.84 198.52 248.41 197.51 248.89 196.47 C 249.09 196.01 249.25 195.53 249.35 195.04 C 249.38 194.87 249.38 194.69 249.35 194.52 C 249.35 194.37 249.35 194.38 249.35 194.35 L 249.35 194.35 L 250.46 191.57 L 251.46 192.57 C 256.24 197.42 260.74 202.50 265.19 207.63 L 268.50 211.49 L 271.75 215.41 L 272.57 216.41 L 272.97 216.90 L 273.18 217.14 L 273.28 217.26 L 273.33 217.33 L 273.45 217.49 C 273.73 217.88 273.93 218.32 274.05 218.79 C 274.14 219.16 274.18 219.55 274.17 219.93 C 274.15 220.54 274.04 221.14 273.86 221.72 C 273.24 223.50 272.37 225.18 271.28 226.72 C 269.30 229.59 267.12 232.30 264.74 234.85 C 262.45 237.40 260.01 239.85 257.55 242.18 C 252.60 246.87 247.41 251.30 242.00 255.46 C 246.69 250.52 251.32 245.57 255.78 240.46 C 258.03 237.94 260.19 235.35 262.29 232.74 C 264.38 230.17 266.31 227.47 268.08 224.67 C 268.90 223.40 269.54 222.03 270.00 220.59 C 270.07 220.36 270.10 220.11 270.10 219.87 C 270.10 219.77 270.10 219.77 270.10 219.75 C 270.10 219.73 270.10 219.83 270.16 219.92 L 268.58 218.08 L 265.25 214.23 L 262.00 210.37 C 257.66 205.14 253.38 199.88 249.39 194.37 L 251.49 192.58 L 251.49 192.58 C 251.85 193.02 252.08 193.54 252.16 194.10 C 252.23 194.54 252.23 194.99 252.16 195.43 C 252.05 196.16 251.86 196.88 251.59 197.56 C 251.08 198.78 250.48 199.96 249.79 201.09 C 248.45 203.25 246.99 205.33 245.41 207.32 C 242.29 211.27 238.94 214.99 235.50 218.60 C 228.59 225.81 221.25 232.55 213.69 239.05 C 206.13 245.55 198.27 251.67 190.06 257.35 C 185.94 260.19 181.74 262.91 177.34 265.35 C 175.12 266.60 172.82 267.72 170.47 268.70 C 169.23 269.22 167.96 269.63 166.65 269.93 C 165.91 270.10 165.14 270.18 164.38 270.17 C 163.91 270.18 163.45 270.12 163.00 270.00 C 162.41 269.81 161.87 269.46 161.46 269.00 L 164.05 266.81 L 164.05 266.81 C 168.77 271.70 173.24 276.81 177.65 281.97 L 180.94 285.86 L 184.18 289.79 L 185.72 291.65 C 185.63 291.58 185.58 291.54 185.54 291.55 C 185.50 291.56 185.54 291.55 185.63 291.55 C 185.87 291.58 186.10 291.58 186.34 291.55 C 187.83 291.34 189.28 290.93 190.66 290.34 C 193.72 289.06 196.69 287.60 199.57 285.97 C 202.49 284.33 205.40 282.62 208.26 280.83 C 214.00 277.28 219.63 273.52 225.26 269.69 Z" fill="#1a1b23" fill-rule="nonzero" group-id="1" node-id="471" stroke="none" target-height="104.119995" target-width="112.73001" target-x="161.44" target-y="191.57"></path><path d="M 172.58 266.75 L 177.92 262.22 L 199.27 287.38 L 193.93 291.91 Z" fill="#afafaa" fill-rule="nonzero" group-id="1" node-id="473" stroke-linecap="butt" stroke-width="1" target-height="29.69278" target-width="26.68634" target-x="172.57874" target-y="262.21722"></path><path d="M 183.09 259.81 L 188.42 255.28 L 209.77 280.45 L 204.43 284.98 Z" fill="#afafaa" fill-rule="nonzero" group-id="1" node-id="475" stroke-linecap="butt" stroke-width="1" target-height="29.69278" target-width="26.68634" target-x="183.0859" target-y="255.28238"></path><path d="M 236.46 214.52 L 241.80 209.99 L 263.15 235.16 L 257.81 239.69 Z" fill="#afafaa" fill-rule="nonzero" group-id="1" node-id="477" stroke-linecap="butt" stroke-width="1" target-height="29.692795" target-width="26.68634" target-x="236.462" target-y="209.9935"></path><path d="M 243.68 204.46 L 249.02 199.94 L 270.36 225.10 L 265.03 229.63 Z" fill="#afafaa" fill-rule="nonzero" group-id="1" node-id="479" stroke-linecap="butt" stroke-width="1" target-height="29.692795" target-width="26.68634" target-x="243.67844" target-y="199.93552"></path><path d="M 225.26 269.69 C 220.26 274.32 215.07 278.69 209.63 282.86 C 206.89 284.91 204.13 286.93 201.23 288.78 C 198.34 290.72 195.31 292.45 192.16 293.94 C 190.46 294.77 188.65 295.36 186.78 295.69 C 186.17 295.78 185.56 295.78 184.95 295.69 C 184.56 295.63 184.19 295.53 183.82 295.39 C 183.37 295.19 182.95 294.91 182.60 294.56 L 182.47 294.42 L 182.41 294.35 L 182.30 294.23 L 182.09 293.99 L 181.67 293.51 L 180.84 292.51 L 177.49 288.68 L 174.19 284.80 C 169.82 279.61 165.50 274.37 161.44 268.91 L 161.44 268.91 L 164.03 266.72 C 164.03 266.66 163.94 266.72 164.03 266.72 C 164.17 266.76 164.31 266.78 164.45 266.77 C 164.93 266.75 165.40 266.68 165.86 266.56 C 166.96 266.27 168.03 265.89 169.07 265.43 C 171.27 264.45 173.41 263.34 175.47 262.10 C 179.68 259.67 183.77 256.96 187.78 254.10 C 195.78 248.42 203.55 242.38 211.09 235.98 C 218.64 229.64 225.93 222.98 232.88 216.04 C 236.35 212.57 239.71 208.98 242.83 205.23 C 244.40 203.40 245.86 201.47 247.20 199.47 C 247.84 198.52 248.41 197.51 248.89 196.47 C 249.09 196.01 249.25 195.53 249.35 195.04 C 249.38 194.87 249.38 194.69 249.35 194.52 C 249.35 194.37 249.35 194.38 249.35 194.35 L 249.35 194.35 L 250.46 191.57 L 251.46 192.57 C 256.24 197.42 260.74 202.50 265.19 207.63 L 268.50 211.49 L 271.75 215.41 L 272.57 216.41 L 272.97 216.90 L 273.18 217.14 L 273.28 217.26 L 273.33 217.33 L 273.45 217.49 C 273.73 217.88 273.93 218.32 274.05 218.79 C 274.14 219.16 274.18 219.55 274.17 219.93 C 274.15 220.54 274.04 221.14 273.86 221.72 C 273.24 223.50 272.37 225.18 271.28 226.72 C 269.30 229.59 267.12 232.30 264.74 234.85 C 262.45 237.40 260.01 239.85 257.55 242.18 C 252.60 246.87 247.41 251.30 242.00 255.46 C 246.69 250.52 251.32 245.57 255.78 240.46 C 258.03 237.94 260.19 235.35 262.29 232.74 C 264.38 230.17 266.31 227.47 268.08 224.67 C 268.90 223.40 269.54 222.03 270.00 220.59 C 270.07 220.36 270.10 220.11 270.10 219.87 C 270.10 219.77 270.10 219.77 270.10 219.75 C 270.10 219.73 270.10 219.83 270.16 219.92 L 268.58 218.08 L 265.25 214.23 L 262.00 210.37 C 257.66 205.14 253.38 199.88 249.39 194.37 L 251.49 192.58 L 251.49 192.58 C 251.85 193.02 252.08 193.54 252.16 194.10 C 252.23 194.54 252.23 194.99 252.16 195.43 C 252.05 196.16 251.86 196.88 251.59 197.56 C 251.08 198.78 250.48 199.96 249.79 201.09 C 248.45 203.25 246.99 205.33 245.41 207.32 C 242.29 211.27 238.94 214.99 235.50 218.60 C 228.59 225.81 221.25 232.55 213.69 239.05 C 206.13 245.55 198.27 251.67 190.06 257.35 C 185.94 260.19 181.74 262.91 177.34 265.35 C 175.12 266.60 172.82 267.72 170.47 268.70 C 169.23 269.22 167.96 269.63 166.65 269.93 C 165.91 270.10 165.14 270.18 164.38 270.17 C 163.91 270.18 163.45 270.12 163.00 270.00 C 162.41 269.81 161.87 269.46 161.46 269.00 L 164.05 266.81 L 164.05 266.81 C 168.77 271.70 173.24 276.81 177.65 281.97 L 180.94 285.86 L 184.18 289.79 L 185.72 291.65 C 185.63 291.58 185.58 291.54 185.54 291.55 C 185.50 291.56 185.54 291.55 185.63 291.55 C 185.87 291.58 186.10 291.58 186.34 291.55 C 187.83 291.34 189.28 290.93 190.66 290.34 C 193.72 289.06 196.69 287.60 199.57 285.97 C 202.49 284.33 205.40 282.62 208.26 280.83 C 214.00 277.28 219.63 273.52 225.26 269.69 Z" fill="#1a1b23" fill-rule="nonzero" group-id="1" node-id="481" stroke="none" target-height="104.119995" target-width="112.73001" target-x="161.44" target-y="191.57"></path><path d="M 381.20 696.83 L 373.20 667.90 C 416.99 667.87 459.95 655.97 497.50 633.45 L 505.50 662.38 C 467.41 683.62 424.79 695.44 381.20 696.83 Z" fill="#e5e52e" fill-rule="nonzero" group-id="1" node-id="483" stroke="none" target-height="63.380005" target-width="132.29999" target-x="373.2" target-y="633.45"></path><path d="M 374.41 706.00 L 361.35 658.86 L 373.30 658.86 C 415.42 658.80 456.73 647.34 492.86 625.70 L 503.01 619.60 L 516.07 666.74 L 509.91 670.19 C 470.56 692.15 426.51 704.36 381.47 705.78 Z M 384.94 676.59 L 387.94 687.49 C 425.30 685.30 461.77 675.20 494.94 657.85 L 491.94 646.95 C 458.93 664.68 422.37 674.81 384.94 676.59 Z" fill="#1a1b23" fill-rule="nonzero" group-id="1" node-id="485" stroke="none" target-height="86.400024" target-width="154.72" target-x="361.35" target-y="619.6"></path><path d="M 387.07 691.81 C 386.58 690.02 389.56 687.41 395.07 684.40 C 404.36 679.32 420.87 673.10 440.07 667.78 C 459.27 662.46 476.63 659.30 487.21 658.87 C 493.49 658.61 497.39 659.32 497.88 661.10 C 499.21 665.89 475.48 676.64 444.88 685.10 C 414.28 693.56 388.40 696.59 387.07 691.81 Z" fill="#ffffff" fill-rule="nonzero" group-id="1" node-id="487" stroke="none" target-height="35.164978" target-width="110.81" target-x="387.07" target-y="658.87"></path><path d="M 395.40 696.09 C 387.40 696.09 385.65 694.18 385.14 692.34 C 384.34 689.46 387.14 686.47 394.14 682.64 C 403.93 677.30 420.91 671.02 439.57 665.85 C 458.23 660.68 476.03 657.32 487.17 656.85 C 495.17 656.52 499.05 657.66 499.85 660.54 C 500.53 662.98 499.36 666.67 484.22 673.54 C 474.12 678.12 460.35 682.91 445.45 687.04 C 430.55 691.17 416.28 694.15 405.26 695.42 C 401.99 695.83 398.70 696.05 395.40 696.09 Z M 389.11 691.24 C 389.90 691.67 393.41 692.90 406.33 691.24 C 419.17 689.42 431.86 686.72 444.33 683.17 C 456.86 679.80 469.13 675.57 481.08 670.52 C 493.00 665.27 495.38 662.41 495.83 661.64 C 495.26 661.32 493.27 660.64 487.28 660.84 C 476.43 661.28 458.98 664.58 440.59 669.68 C 422.20 674.78 405.56 681.00 396.00 686.15 C 390.78 689.00 389.44 690.68 389.11 691.24 Z" fill="#1a1b23" fill-rule="nonzero" group-id="1" node-id="489" stroke="none" target-height="39.271545" target-width="114.96625" target-x="385.02872" target-y="656.8185"></path><path d="M 487.25 658.83 L 487.12 659.28 L 486.29 660.04 L 484.05 661.33 L 480.30 663.03 L 474.51 665.29 L 468.07 667.57 L 460.10 670.18 L 451.67 672.75 L 442.25 675.45 L 432.78 677.99 L 424.23 680.12 L 416.06 681.99 L 409.36 683.35 L 403.22 684.39 L 399.14 684.86 L 396.55 684.91 L 395.45 684.68 L 395.11 684.37 L 395.24 683.91 L 396.06 683.15 L 398.31 681.86 L 402.05 680.16 L 407.84 677.90 L 414.29 675.62 L 422.26 673.01 L 430.69 670.44 L 440.11 667.74 L 449.58 665.21 L 458.13 663.07 L 466.30 661.21 L 473.00 659.84 L 479.13 658.80 L 483.22 658.33 L 485.81 658.28 L 486.91 658.51 L 487.25 658.83 Z" fill="#969693" fill-rule="nonzero" group-id="1" node-id="491" stroke-linecap="butt" stroke-width="1" target-height="26.63031" target-width="92.14679" target-x="395.1051" target-y="658.2814"></path><path d="M 386.61 686.75 L 394.11 682.64 C 403.90 677.30 420.88 671.02 439.54 665.85 C 458.20 660.68 476.00 657.32 487.14 656.85 L 495.69 656.50 L 488.18 660.60 C 478.40 665.95 461.41 672.22 442.75 677.40 C 424.09 682.58 406.29 685.92 395.15 686.40 Z M 475.87 662.00 C 452.08 665.83 428.79 672.29 406.42 681.24 C 430.21 677.42 453.50 670.97 475.87 662.00 Z" fill="#1a1b23" fill-rule="nonzero" group-id="1" node-id="493" stroke="none" target-height="30.25" target-width="109.08002" target-x="386.61" target-y="656.5"></path><path d="M 441.67 633.27 C 456.54 629.63 469.59 627.48 478.17 627.13 C 484.45 626.88 488.35 627.58 488.84 629.36 L 497.65 661.17 C 497.16 659.38 493.26 658.68 486.98 658.93 C 476.40 659.36 459.04 662.52 439.84 667.85 C 420.64 673.18 404.12 679.39 394.84 684.47 C 389.33 687.47 386.34 690.09 386.84 691.87 L 378.00 660.07 C 377.50 658.29 380.48 655.68 386.00 652.66 C 393.54 648.55 405.83 643.66 420.45 639.14" fill="#ffffff" fill-rule="nonzero" group-id="1" node-id="495" stroke="none" target-height="64.73999" target-width="119.649994" target-x="378" target-y="627.13"></path><path d="M 441.67 633.27 C 448.15 631.15 454.73 629.35 461.39 627.88 C 464.73 627.17 468.09 626.50 471.49 626.03 C 474.93 625.48 478.41 625.19 481.89 625.16 C 483.78 625.12 485.68 625.34 487.51 625.82 C 488.10 626.00 488.66 626.26 489.18 626.58 C 489.51 626.79 489.81 627.04 490.08 627.33 C 490.41 627.70 490.66 628.13 490.83 628.59 L 490.90 628.77 L 490.90 628.86 L 490.90 629.01 L 490.99 629.32 L 491.17 629.93 L 491.53 631.15 L 493.00 636.00 L 494.36 640.90 C 496.14 647.45 497.87 654.01 499.26 660.67 L 499.26 660.67 L 495.99 661.58 C 495.99 661.64 496.05 661.66 495.99 661.58 C 495.87 661.50 495.75 661.43 495.62 661.37 C 495.18 661.18 494.73 661.05 494.26 660.96 C 493.14 660.76 492.00 660.65 490.86 660.64 C 488.46 660.61 486.05 660.72 483.66 660.97 C 478.82 661.42 473.96 662.16 469.14 663.05 C 459.47 664.83 449.87 667.05 440.38 669.71 C 430.89 672.37 421.46 675.25 412.23 678.65 C 407.62 680.35 403.06 682.19 398.66 684.28 C 396.47 685.29 394.33 686.42 392.27 687.68 C 391.28 688.27 390.35 688.94 389.47 689.68 C 389.10 690.01 388.76 690.38 388.47 690.78 C 388.37 690.92 388.28 691.08 388.22 691.24 C 388.16 691.37 388.22 691.38 388.22 691.40 L 388.22 691.40 L 386.04 693.40 L 385.56 692.09 C 383.25 685.69 381.30 679.18 379.42 672.66 L 378.04 667.76 L 376.67 663.00 L 376.34 661.77 L 376.18 661.15 L 376.09 660.84 L 376.09 660.69 L 376.09 660.60 L 376.09 660.42 C 376.00 659.94 376.00 659.46 376.09 658.98 C 376.17 658.60 376.30 658.23 376.47 657.89 C 376.74 657.35 377.08 656.85 377.47 656.40 C 378.79 655.04 380.29 653.87 381.93 652.93 C 384.92 651.16 388.05 649.62 391.27 648.31 C 394.42 646.95 397.65 645.79 400.87 644.67 C 407.33 642.49 413.90 640.64 420.55 639.14 C 414.22 641.66 407.94 644.21 401.76 646.94 C 398.66 648.29 395.61 649.73 392.61 651.22 C 389.63 652.67 386.75 654.31 383.97 656.11 C 382.69 656.92 381.53 657.89 380.51 659.00 C 380.35 659.19 380.22 659.40 380.12 659.62 C 380.07 659.70 380.12 659.72 380.12 659.73 C 380.12 659.74 380.12 659.65 380.12 659.55 L 380.79 661.88 L 382.20 666.78 L 383.54 671.69 C 385.28 678.25 386.95 684.83 388.27 691.50 L 385.61 692.24 L 385.61 692.24 C 385.45 691.70 385.45 691.12 385.61 690.58 C 385.73 690.15 385.92 689.74 386.16 689.37 C 386.56 688.75 387.04 688.18 387.58 687.68 C 388.55 686.78 389.59 685.96 390.69 685.23 C 392.81 683.83 395.01 682.56 397.28 681.41 C 401.77 679.14 406.37 677.17 411.02 675.34 C 420.31 671.70 429.81 668.66 439.39 665.94 C 448.97 663.22 458.68 660.94 468.53 659.25 C 473.45 658.40 478.41 657.69 483.44 657.25 C 485.98 657.05 488.53 657.00 491.08 657.10 C 492.42 657.15 493.76 657.31 495.08 657.58 C 495.83 657.74 496.55 657.99 497.24 658.32 C 497.67 658.52 498.07 658.79 498.42 659.12 C 498.89 659.54 499.23 660.08 499.42 660.68 L 496.15 661.59 L 496.15 661.59 C 493.92 655.16 492.01 648.65 490.15 642.12 L 488.80 637.21 L 487.51 632.28 L 486.89 629.94 C 486.94 630.05 486.97 630.10 487.01 630.12 C 487.05 630.14 487.01 630.12 486.94 630.05 C 486.74 629.92 486.53 629.81 486.31 629.73 C 484.87 629.30 483.38 629.06 481.88 629.02 C 478.57 628.89 475.26 628.96 471.96 629.24 C 468.62 629.50 465.26 629.83 461.91 630.24 C 455.09 631.11 448.39 632.16 441.67 633.27 Z" fill="#1a1b23" fill-rule="nonzero" group-id="1" node-id="497" stroke="none" target-height="68.24005" target-width="123.33002" target-x="376.09" target-y="625.16"></path><path d="M 488.12 661.81 L 481.40 663.70 L 472.49 632.02 L 479.21 630.13 Z" fill="#afafaa" fill-rule="nonzero" group-id="1" node-id="499" stroke-linecap="butt" stroke-width="0.9972462" target-height="33.570007" target-width="15.630005" target-x="472.48645" target-y="630.1332"></path><path d="M 475.63 663.67 L 468.91 665.56 L 460.00 633.88 L 466.72 631.99 Z" fill="#afafaa" fill-rule="nonzero" group-id="1" node-id="501" stroke-linecap="butt" stroke-width="0.9972462" target-height="33.569946" target-width="15.630005" target-x="459.9981" target-y="631.9873"></path><path d="M 407.86 682.23 L 401.14 684.12 L 392.23 652.44 L 398.95 650.55 Z" fill="#afafaa" fill-rule="nonzero" group-id="1" node-id="503" stroke-linecap="butt" stroke-width="0.9972462" target-height="33.570007" target-width="15.630005" target-x="392.23346" target-y="650.55066"></path><path d="M 397.04 688.31 L 390.32 690.20 L 381.41 658.52 L 388.13 656.63 Z" fill="#afafaa" fill-rule="nonzero" group-id="1" node-id="505" stroke-linecap="butt" stroke-width="0.9972462" target-height="33.570007" target-width="15.630005" target-x="381.406" target-y="656.6295"></path><path d="M 441.67 633.27 C 448.15 631.15 454.73 629.35 461.39 627.88 C 464.73 627.17 468.09 626.50 471.49 626.03 C 474.93 625.48 478.41 625.19 481.89 625.16 C 483.78 625.12 485.68 625.34 487.51 625.82 C 488.10 626.00 488.66 626.26 489.18 626.58 C 489.51 626.79 489.81 627.04 490.08 627.33 C 490.41 627.70 490.66 628.13 490.83 628.59 L 490.90 628.77 L 490.90 628.86 L 490.90 629.01 L 490.99 629.32 L 491.17 629.93 L 491.53 631.15 L 493.00 636.00 L 494.36 640.90 C 496.14 647.45 497.87 654.01 499.26 660.67 L 499.26 660.67 L 495.99 661.58 C 495.99 661.64 496.05 661.66 495.99 661.58 C 495.87 661.50 495.75 661.43 495.62 661.37 C 495.18 661.18 494.73 661.05 494.26 660.96 C 493.14 660.76 492.00 660.65 490.86 660.64 C 488.46 660.61 486.05 660.72 483.66 660.97 C 478.82 661.42 473.96 662.16 469.14 663.05 C 459.47 664.83 449.87 667.05 440.38 669.71 C 430.89 672.37 421.46 675.25 412.23 678.65 C 407.62 680.35 403.06 682.19 398.66 684.28 C 396.47 685.29 394.33 686.42 392.27 687.68 C 391.28 688.27 390.35 688.94 389.47 689.68 C 389.10 690.01 388.76 690.38 388.47 690.78 C 388.37 690.92 388.28 691.08 388.22 691.24 C 388.16 691.37 388.22 691.38 388.22 691.40 L 388.22 691.40 L 386.04 693.40 L 385.56 692.09 C 383.25 685.69 381.30 679.18 379.42 672.66 L 378.04 667.76 L 376.67 663.00 L 376.34 661.77 L 376.18 661.15 L 376.09 660.84 L 376.09 660.69 L 376.09 660.60 L 376.09 660.42 C 376.00 659.94 376.00 659.46 376.09 658.98 C 376.17 658.60 376.30 658.23 376.47 657.89 C 376.74 657.35 377.08 656.85 377.47 656.40 C 378.79 655.04 380.29 653.87 381.93 652.93 C 384.92 651.16 388.05 649.62 391.27 648.31 C 394.42 646.95 397.65 645.79 400.87 644.67 C 407.33 642.49 413.90 640.64 420.55 639.14 C 414.22 641.66 407.94 644.21 401.76 646.94 C 398.66 648.29 395.61 649.73 392.61 651.22 C 389.63 652.67 386.75 654.31 383.97 656.11 C 382.69 656.92 381.53 657.89 380.51 659.00 C 380.35 659.19 380.22 659.40 380.12 659.62 C 380.07 659.70 380.12 659.72 380.12 659.73 C 380.12 659.74 380.12 659.65 380.12 659.55 L 380.79 661.88 L 382.20 666.78 L 383.54 671.69 C 385.28 678.25 386.95 684.83 388.27 691.50 L 385.61 692.24 L 385.61 692.24 C 385.45 691.70 385.45 691.12 385.61 690.58 C 385.73 690.15 385.92 689.74 386.16 689.37 C 386.56 688.75 387.04 688.18 387.58 687.68 C 388.55 686.78 389.59 685.96 390.69 685.23 C 392.81 683.83 395.01 682.56 397.28 681.41 C 401.77 679.14 406.37 677.17 411.02 675.34 C 420.31 671.70 429.81 668.66 439.39 665.94 C 448.97 663.22 458.68 660.94 468.53 659.25 C 473.45 658.40 478.41 657.69 483.44 657.25 C 485.98 657.05 488.53 657.00 491.08 657.10 C 492.42 657.15 493.76 657.31 495.08 657.58 C 495.83 657.74 496.55 657.99 497.24 658.32 C 497.67 658.52 498.07 658.79 498.42 659.12 C 498.89 659.54 499.23 660.08 499.42 660.68 L 496.15 661.59 L 496.15 661.59 C 493.92 655.16 492.01 648.65 490.15 642.12 L 488.80 637.21 L 487.51 632.28 L 486.89 629.94 C 486.94 630.05 486.97 630.10 487.01 630.12 C 487.05 630.14 487.01 630.12 486.94 630.05 C 486.74 629.92 486.53 629.81 486.31 629.73 C 484.87 629.30 483.38 629.06 481.88 629.02 C 478.57 628.89 475.26 628.96 471.96 629.24 C 468.62 629.50 465.26 629.83 461.91 630.24 C 455.09 631.11 448.39 632.16 441.67 633.27 Z" fill="#1a1b23" fill-rule="nonzero" group-id="1" node-id="507" stroke="none" target-height="68.24005" target-width="123.33002" target-x="376.09" target-y="625.16"></path><path d="M 127.49 513.87 L 144.56 502.00 C 145.09 503.65 145.64 505.30 146.21 506.94 C 160.69 548.27 186.10 584.90 219.74 612.94 C 221.07 614.05 222.41 615.14 223.74 616.23 L 206.67 628.06 C 202.07 631.24 195.88 630.83 191.75 627.06 C 161.78 599.66 138.35 565.88 123.19 528.22 C 121.10 523.02 122.88 517.06 127.49 513.87 Z" fill="#ffffff" fill-rule="nonzero" group-id="1" node-id="509" stroke="none" target-height="128.16797" target-width="101.39065" target-x="122.34936" target-y="502"></path><path d="M 199.90 639.24 C 194.65 639.23 189.59 637.25 185.73 633.70 C 154.75 605.40 130.54 570.49 114.88 531.56 C 111.17 522.48 114.29 512.05 122.36 506.48 L 122.36 506.48 L 149.36 487.74 L 153.10 499.25 C 153.61 500.83 154.10 502.42 154.69 503.98 C 168.63 543.77 193.10 579.02 225.49 606.00 C 226.78 607.08 228.08 608.13 229.38 609.16 L 238.86 616.70 L 211.86 635.44 C 208.36 637.90 204.18 639.23 199.90 639.24 Z M 132.62 521.24 C 131.50 522.06 131.08 523.54 131.62 524.82 C 146.28 561.24 168.93 593.89 197.90 620.38 C 198.93 621.33 200.47 621.45 201.63 620.66 L 208.99 615.55 C 178.23 588.53 154.55 554.40 139.99 516.13 Z" fill="#1a1b23" fill-rule="nonzero" group-id="1" node-id="511" stroke="none" target-height="151.5" target-width="125.48169" target-x="113.37831" target-y="487.74"></path><path d="M 181.72 617.39 L 178.87 613.28 L 201.88 597.32 L 204.73 601.43 Z" fill="#afafaa" fill-rule="nonzero" group-id="1" node-id="513" stroke-linecap="butt" stroke-width="1" target-height="20.068115" target-width="25.85611" target-x="178.87137" target-y="597.3248"></path><path d="M 176.60 609.99 L 170.90 601.78 L 193.91 585.82 L 199.61 594.03 Z" fill="#afafaa" fill-rule="nonzero" group-id="1" node-id="515" stroke-linecap="butt" stroke-width="1" target-height="24.17633" target-width="28.706085" target-x="170.901" target-y="585.8171"></path><path d="M 129.30 541.80 L 126.45 537.69 L 149.45 521.73 L 152.30 525.84 Z" fill="#afafaa" fill-rule="nonzero" group-id="1" node-id="517" stroke-linecap="butt" stroke-width="1" target-height="20.068115" target-width="25.85608" target-x="126.44554" target-y="521.73364"></path><path d="M 136.45 553.88 L 130.75 545.66 L 153.75 529.70 L 159.45 537.92 Z" fill="#afafaa" fill-rule="nonzero" group-id="1" node-id="519" stroke-linecap="butt" stroke-width="1" target-height="24.176392" target-width="28.706055" target-x="130.74734" target-y="529.70013"></path><path d="M 199.90 639.24 C 194.65 639.23 189.59 637.25 185.73 633.70 C 154.75 605.40 130.54 570.49 114.88 531.56 C 111.17 522.48 114.29 512.05 122.36 506.48 L 122.36 506.48 L 149.36 487.74 L 153.10 499.25 C 153.61 500.83 154.10 502.42 154.69 503.98 C 168.63 543.77 193.10 579.02 225.49 606.00 C 226.78 607.08 228.08 608.13 229.38 609.16 L 238.86 616.70 L 211.86 635.44 C 208.36 637.90 204.18 639.23 199.90 639.24 Z M 132.62 521.24 C 131.50 522.06 131.08 523.54 131.62 524.82 C 146.28 561.24 168.93 593.89 197.90 620.38 C 198.93 621.33 200.47 621.45 201.63 620.66 L 208.99 615.55 C 178.23 588.53 154.55 554.40 139.99 516.13 Z" fill="#1a1b23" fill-rule="nonzero" group-id="1" node-id="521" stroke="none" target-height="151.5" target-width="125.48169" target-x="113.37831" target-y="487.74"></path><path d="M 399.70 226.00 L 516.23 277.23 C 516.23 277.23 459.00 236.18 399.70 226.00 Z" fill="#9b9b9b" fill-rule="nonzero" group-id="1" node-id="523" stroke="none" target-height="51.23001" target-width="116.52997" target-x="399.7" target-y="226"></path><path d="M 542.09 282.58 L 542.09 282.58 C 541.30 284.33 539.23 285.11 537.48 284.32 L 490.34 263.20 L 490.46 262.97 C 497.13 250.93 496.67 236.19 489.25 224.59 C 481.83 212.99 468.65 206.39 454.92 207.40 C 441.19 208.40 429.11 216.85 423.46 229.41 C 422.97 230.47 422.54 231.56 422.17 232.67 L 375.00 211.58 C 373.24 210.80 372.45 208.75 373.23 206.99 L 373.23 206.99 C 394.11 160.37 448.84 139.50 495.46 160.39 C 542.09 181.27 562.95 236.00 542.07 282.62 Z" fill="#ffffff" fill-rule="nonzero" group-id="1" node-id="525" stroke="none" target-height="132.32253" target-width="177.21875" target-x="372.93127" target-y="152.30507"></path><path d="M 538.89 288.15 C 537.90 288.15 536.93 287.94 536.03 287.54 L 485.38 264.85 L 487.38 261.28 C 493.41 250.36 492.97 237.02 486.24 226.51 C 479.51 216.01 467.57 210.04 455.13 210.94 C 442.69 211.85 431.75 219.50 426.62 230.87 C 426.17 231.87 425.78 232.87 425.46 233.82 L 424.23 237.47 L 373.56 214.77 C 370.05 213.19 368.47 209.08 370.02 205.56 C 391.80 157.39 448.42 135.89 496.68 157.46 C 544.94 179.04 566.68 235.57 545.30 283.92 L 545.25 284.05 C 544.11 286.54 541.63 288.15 538.89 288.15 Z M 542.12 282.60 L 542.12 282.60 Z M 495.12 261.53 L 538.92 281.15 C 552.30 252.07 549.03 218.04 530.36 192.04 C 511.69 166.04 480.50 152.07 448.66 155.45 C 416.83 158.83 389.27 179.05 376.48 208.39 L 420.25 228.00 C 429.51 207.33 453.76 198.08 474.43 207.34 C 495.10 216.60 504.35 240.85 495.09 261.52 Z" fill="#1a1b23" fill-rule="nonzero" group-id="1" node-id="527" stroke="none" target-height="139.04343" target-width="184.03394" target-x="369.46777" target-y="149.10657"></path><path d="M 541.60 171.15 C 519.81 219.79 483.15 250.70 459.72 240.21 C 436.29 229.72 434.94 181.77 456.72 133.13 C 474.36 93.74 517.12 72.86 532.72 66.34 C 534.25 65.70 535.99 65.72 537.50 66.40 C 539.02 67.08 540.18 68.37 540.72 69.94 C 546.35 86.00 559.24 131.76 541.60 171.15 Z" fill="#ffffff" fill-rule="nonzero" group-id="1" node-id="529" stroke="none" target-height="176.3118" target-width="109.27707" target-x="441.26675" target-y="65.91758"></path><path d="M 469.62 251.27 C 464.93 251.30 460.28 250.33 456.00 248.42 C 441.33 241.85 432.89 225.09 432.23 201.22 C 431.63 179.67 437.39 154.22 448.47 129.45 C 467.27 87.58 511.26 65.56 529.30 58.00 C 533.14 56.41 537.46 56.48 541.24 58.18 C 545.03 59.88 547.95 63.08 549.30 67.00 C 555.69 85.47 568.55 133.00 549.80 174.83 L 549.80 174.83 C 538.72 199.56 523.54 220.83 507.06 234.73 C 494.13 245.65 481.25 251.27 469.62 251.27 Z M 533.31 75.90 C 518.13 82.64 480.40 102.30 464.94 136.81 C 454.94 159.12 449.73 181.81 450.26 200.72 C 450.71 217.06 455.50 228.46 463.39 231.99 C 479.58 239.24 512.31 214.53 533.39 167.47 C 548.85 133.00 538.40 91.71 533.31 75.90 Z" fill="#1a1b23" fill-rule="nonzero" group-id="1" node-id="531" stroke="none" target-height="194.41501" target-width="127.33432" target-x="432.23" target-y="56.854996"></path><path d="M 456.73 133.13 C 456.21 134.28 455.73 135.43 455.22 136.58 C 448.58 152.37 455.80 170.58 471.46 177.53 L 498.66 189.71 C 514.26 196.75 532.63 190.02 540.00 174.57 C 540.53 173.44 541.06 172.30 541.57 171.15 C 541.57 171.05 541.66 170.94 541.71 170.84 C 548.62 154.98 541.44 136.51 525.63 129.49 L 498.39 117.29 C 482.62 110.16 464.05 117.10 456.83 132.83 Z" fill="#ffffff" fill-rule="nonzero" group-id="1" node-id="533" stroke="none" target-height="77.98607" target-width="91.581665" target-x="452.7563" target-y="114.49928"></path><path d="M 511.50 196.00 C 506.58 196.00 501.72 194.96 497.23 192.95 L 470.00 180.73 C 452.68 172.92 444.70 152.75 452.00 135.21 C 452.50 134.04 453.01 132.87 453.53 131.70 L 453.68 131.37 C 461.71 113.91 482.33 106.20 499.85 114.09 L 527.09 126.30 C 544.67 134.12 552.65 154.67 544.94 172.30 L 544.80 172.61 C 544.27 173.79 543.74 174.95 543.20 176.10 C 537.37 188.30 525.02 196.05 511.50 196.00 Z M 485.50 118.05 C 474.57 118.01 464.63 124.37 460.08 134.31 L 459.95 134.60 C 459.44 135.73 458.95 136.86 458.47 138.00 C 452.65 152.04 459.05 168.16 472.92 174.38 L 500.12 186.56 C 513.99 192.77 530.29 186.81 536.89 173.12 C 537.41 172.01 537.89 170.89 538.44 169.75 L 538.57 169.46 C 544.69 155.36 538.31 138.96 524.26 132.72 L 497.00 120.48 C 493.37 118.85 489.45 118.01 485.47 118.00 Z" fill="#1a1b23" fill-rule="nonzero" group-id="1" node-id="535" stroke="none" target-height="84.995575" target-width="98.578125" target-x="449.29742" target-y="111.004425"></path><path d="M 501.74 169.24 C 494.12 169.23 487.02 165.35 482.88 158.95 C 478.74 152.55 478.12 144.49 481.24 137.53 C 481.61 136.83 482.46 136.54 483.18 136.86 C 483.91 137.19 484.25 138.02 483.97 138.76 C 479.57 148.59 483.97 160.13 493.80 164.53 C 503.63 168.93 515.17 164.53 519.57 154.70 C 519.77 154.18 520.24 153.81 520.79 153.74 C 521.35 153.67 521.89 153.92 522.21 154.38 C 522.52 154.84 522.56 155.44 522.30 155.93 C 518.65 164.01 510.61 169.22 501.74 169.24 Z" fill="#1a1b23" fill-opacity="0.5" fill-rule="nonzero" group-id="1,12" node-id="539" stroke-linecap="butt" stroke-opacity="0.5" stroke-width="1" target-height="32.509995" target-width="43.130524" target-x="479.3398" target-y="136.73001"></path><path d="M 512.77 146.73 C 512.77 152.81 507.85 157.73 501.77 157.73 C 495.69 157.73 490.77 152.81 490.77 146.73 C 490.77 140.65 495.69 135.73 501.77 135.73 C 507.85 135.73 512.77 140.65 512.77 146.73 Z" fill="#ffffff" fill-rule="nonzero" group-id="1" node-id="542" stroke="none" target-height="22" target-width="22.00003" target-x="490.77" target-y="135.73"></path><path d="M 501.75 159.23 C 496.21 159.22 491.34 155.57 489.78 150.26 C 488.22 144.95 490.34 139.24 494.99 136.23 C 499.63 133.23 505.71 133.64 509.91 137.24 C 514.11 140.85 515.44 146.79 513.18 151.84 L 513.18 151.84 C 511.16 156.34 506.68 159.23 501.75 159.23 Z M 501.75 137.23 C 497.02 137.23 493.01 140.72 492.35 145.40 C 491.68 150.09 494.57 154.54 499.12 155.86 C 503.66 157.17 508.48 154.94 510.42 150.62 L 510.42 150.62 C 511.73 147.68 511.46 144.28 509.71 141.58 C 507.96 138.87 504.97 137.24 501.75 137.23 Z" fill="#1a1b23" fill-rule="nonzero" group-id="1" node-id="544" stroke="none" target-height="24.971481" target-width="24.971924" target-x="489.3036" target-y="134.25851"></path><path d="M 417.00 214.92 C 416.37 214.91 415.81 214.51 415.60 213.92 L 410.37 200.22 C 409.81 198.76 408.18 198.03 406.72 198.58 L 393.01 203.81 C 392.26 204.00 391.49 203.59 391.23 202.86 C 390.97 202.14 391.30 201.33 392.00 201.00 L 405.71 195.78 C 408.72 194.64 412.08 196.14 413.23 199.15 L 418.46 212.86 C 418.60 213.23 418.59 213.64 418.43 214.01 C 418.26 214.37 417.96 214.65 417.59 214.79 C 417.41 214.88 417.20 214.92 417.00 214.92 Z" fill="#1a1b23" fill-opacity="0.5" fill-rule="nonzero" group-id="1,13" node-id="548" stroke-linecap="butt" stroke-opacity="0.5" stroke-width="1" target-height="19.4935" target-width="27.416718" target-x="391.1417" target-y="195.4265"></path><path d="M 532.94 266.84 C 532.31 266.83 531.75 266.43 531.54 265.84 L 526.32 252.14 C 526.05 251.44 525.52 250.87 524.83 250.56 C 524.14 250.25 523.36 250.23 522.66 250.50 L 509.00 255.75 C 508.49 255.98 507.90 255.91 507.46 255.56 C 507.02 255.22 506.80 254.66 506.91 254.11 C 507.01 253.56 507.41 253.11 507.94 252.95 L 521.64 247.73 C 523.09 247.17 524.69 247.22 526.11 247.85 C 527.52 248.48 528.62 249.65 529.17 251.10 L 534.39 264.80 C 534.53 265.17 534.52 265.58 534.36 265.95 C 534.20 266.31 533.90 266.60 533.53 266.74 C 533.34 266.81 533.14 266.85 532.94 266.84 Z" fill="#1a1b23" fill-opacity="0.5" fill-rule="nonzero" group-id="1,14" node-id="553" stroke-linecap="butt" stroke-opacity="0.5" stroke-width="1" target-height="19.46666" target-width="27.584412" target-x="506.90582" target-y="247.37334"></path><path d="M 758.00 415.18 L 758.95 416.91 C 759.69 418.28 760.82 419.40 762.18 420.15 L 763.92 421.09 L 762.18 422.09 C 760.82 422.84 759.69 423.96 758.95 425.33 L 758.00 427.00 L 757.00 425.27 C 756.25 423.90 755.13 422.78 753.76 422.03 L 752.03 421.03 L 753.76 420.09 C 755.13 419.34 756.25 418.22 757.00 416.85 Z" fill="#ffffff" fill-rule="nonzero" group-id="1" node-id="556" stroke="none" target-height="11.820007" target-width="11.889954" target-x="752.03" target-y="415.18"></path><path d="M 757.95 445.76 L 749.23 429.82 L 733.27 421.09 L 749.23 412.37 L 757.95 396.42 L 766.67 412.37 L 782.63 421.09 L 766.67 429.82 L 757.95 445.76 Z" fill="#1a1b23" fill-rule="nonzero" group-id="1" node-id="558" stroke="none" target-height="49.339996" target-width="49.359985" target-x="733.27" target-y="396.42"></path><path d="M 140.00 697.18 L 141.00 698.91 C 141.74 700.28 142.87 701.40 144.23 702.15 L 145.97 703.09 L 144.23 704.04 C 142.87 704.79 141.74 705.91 141.00 707.28 L 140.00 709.00 L 139.05 707.27 C 138.30 705.90 137.18 704.78 135.81 704.03 L 134.08 703.08 L 135.81 702.14 C 137.18 701.39 138.30 700.27 139.05 698.90 Z" fill="#ffffff" fill-rule="nonzero" group-id="1" node-id="560" stroke="none" target-height="11.820007" target-width="11.889999" target-x="134.08" target-y="697.18"></path><path d="M 140.00 717.35 L 135.54 709.20 C 135.16 708.50 134.59 707.93 133.89 707.55 L 125.74 703.09 L 133.90 698.64 C 134.59 698.26 135.16 697.69 135.54 696.99 L 140.00 688.84 L 144.46 696.99 C 144.83 697.69 145.40 698.26 146.10 698.64 L 154.25 703.09 L 146.10 707.55 C 145.40 707.93 144.83 708.50 144.46 709.20 Z" fill="#1a1b23" fill-rule="nonzero" group-id="1" node-id="562" stroke="none" target-height="28.509949" target-width="28.510002" target-x="125.74" target-y="688.84"></path><path d="M 716.00 431.18 L 716.95 432.91 C 717.69 434.28 718.82 435.40 720.18 436.15 L 721.92 437.09 L 720.18 438.09 C 718.82 438.84 717.69 439.96 716.95 441.33 L 716.00 443.00 L 715.00 441.27 C 714.25 439.90 713.13 438.78 711.76 438.03 L 710.03 437.03 L 711.76 436.09 C 713.13 435.34 714.25 434.22 715.00 432.85 Z" fill="#ffffff" fill-rule="nonzero" group-id="1" node-id="564" stroke="none" target-height="11.820007" target-width="11.889954" target-x="710.03" target-y="431.18"></path><path d="M 716.00 451.35 L 711.54 443.20 C 711.16 442.50 710.59 441.93 709.89 441.55 L 701.74 437.09 L 709.89 432.64 C 710.59 432.26 711.16 431.69 711.54 430.99 L 716.00 422.84 L 720.46 430.99 C 720.84 431.69 721.41 432.26 722.10 432.64 L 730.25 437.09 L 722.10 441.55 C 721.41 441.93 720.84 442.50 720.46 443.20 Z" fill="#1a1b23" fill-rule="nonzero" group-id="1" node-id="566" stroke="none" target-height="28.51001" target-width="28.51001" target-x="701.74" target-y="422.84"></path><path d="M 33.00 425.18 L 33.95 426.91 C 34.69 428.28 35.82 429.40 37.18 430.15 L 38.92 431.09 L 37.18 432.09 C 35.82 432.84 34.69 433.96 33.95 435.33 L 33.00 437.00 L 32.00 435.27 C 31.26 433.89 30.13 432.76 28.76 432.00 L 27.03 431.00 L 28.76 430.06 C 30.12 429.34 31.24 428.24 32.00 426.91 Z" fill="#ffffff" fill-rule="nonzero" group-id="1" node-id="568" stroke="none" target-height="11.820007" target-width="11.8899975" target-x="27.03" target-y="425.18"></path><path d="M 33.00 447.43 L 27.66 437.68 C 27.37 437.15 26.94 436.72 26.42 436.43 L 16.66 431.09 L 26.42 425.76 C 26.94 425.47 27.37 425.04 27.66 424.51 L 33.00 414.76 L 38.33 424.51 C 38.62 425.04 39.05 425.47 39.58 425.76 L 49.34 431.09 L 39.58 436.43 C 39.05 436.72 38.62 437.15 38.33 437.68 Z" fill="#1a1b23" fill-rule="nonzero" group-id="1" node-id="570" stroke="none" target-height="32.669983" target-width="32.68" target-x="16.66" target-y="414.76"></path><path d="M 588.00 49.00 C 584.34 48.89 580.70 48.38 577.15 47.49 C 568.15 45.49 556.88 41.49 545.30 36.40 C 533.72 31.31 523.20 25.58 515.66 20.34 C 505.91 13.57 502.44 8.57 504.40 4.12 C 506.36 -0.33 512.40 -1.13 523.97 1.51 C 532.97 3.51 544.24 7.51 555.82 12.60 C 567.40 17.69 577.93 23.41 585.48 28.60 C 595.22 35.37 598.69 40.38 596.73 44.82 L 596.73 44.82 C 595.51 47.64 592.72 49.00 588.00 49.00 Z M 513.13 8.00 C 516.84 12.00 528.50 20.26 548.54 29.11 C 568.58 37.96 582.56 41.00 588.00 41.00 C 584.29 37.00 572.63 28.74 552.59 19.90 C 532.55 11.06 518.57 8.00 513.13 8.00 Z" fill="#1a1b23" fill-rule="nonzero" group-id="1" node-id="572" stroke="none" target-height="48.98833" target-width="93.27893" target-x="503.92548" target-y="0.011670463"></path><g clip-path="url(#clip-path-3)" group-id="1,15" node-id="574"><path d="M 227.55 749.36 L 222.06 750.15 L 222.06 749.36 L 227.55 749.36 Z" fill="#ffffff" fill-rule="nonzero" group-id="1,15" node-id="576" stroke="none" target-height="0.79003906" target-width="5.4900055" target-x="222.06" target-y="749.36"></path><path d="M 230.59 749.36 L 222.06 750.60 L 222.06 750.15 L 227.55 749.36 L 230.59 749.36 Z" fill="#ffffff" fill-rule="nonzero" group-id="1,15" node-id="578" stroke="none" target-height="1.2399902" target-width="8.529999" target-x="222.06" target-y="749.36"></path><path d="M 233.05 749.44 L 222.06 751.03 L 222.06 750.60 L 230.59 749.36 L 233.05 749.36 L 233.05 749.44 Z" fill="#fefefe" fill-rule="nonzero" group-id="1,15" node-id="580" stroke="none" target-height="1.670044" target-width="10.9900055" target-x="222.06" target-y="749.36"></path><path d="M 233.05 749.88 L 222.06 751.47 L 222.06 751.03 L 233.05 749.44 L 233.05 749.88 Z" fill="#fdfdfd" fill-rule="nonzero" group-id="1,15" node-id="582" stroke="none" target-height="2.0299683" target-width="10.9900055" target-x="222.06" target-y="749.44"></path><path d="M 233.05 750.32 L 222.06 751.91 L 222.06 751.47 L 233.05 749.88 L 233.05 750.32 Z" fill="#fcfcfc" fill-rule="nonzero" group-id="1,15" node-id="584" stroke="none" target-height="2.0299683" target-width="10.9900055" target-x="222.06" target-y="749.88"></path><path d="M 233.05 750.76 L 222.06 752.35 L 222.06 751.91 L 233.05 750.32 L 233.05 750.76 Z" fill="#fbfbfb" fill-rule="nonzero" group-id="1,15" node-id="586" stroke="none" target-height="2.0299683" target-width="10.9900055" target-x="222.06" target-y="750.32"></path><path d="M 233.05 751.20 L 222.06 752.79 L 222.06 752.35 L 233.05 750.76 L 233.05 751.20 Z" fill="#fafafa" fill-rule="nonzero" group-id="1,15" node-id="588" stroke="none" target-height="2.0299683" target-width="10.9900055" target-x="222.06" target-y="750.76"></path><path d="M 233.05 751.64 L 222.06 753.23 L 222.06 752.79 L 233.05 751.20 L 233.05 751.64 Z" fill="#f9f9f9" fill-rule="nonzero" group-id="1,15" node-id="590" stroke="none" target-height="2.0299683" target-width="10.9900055" target-x="222.06" target-y="751.2"></path><path d="M 233.05 752.08 L 222.06 753.67 L 222.06 753.23 L 233.05 751.64 L 233.05 752.08 Z" fill="#f8f8f8" fill-rule="nonzero" group-id="1,15" node-id="592" stroke="none" target-height="2.0299683" target-width="10.9900055" target-x="222.06" target-y="751.64"></path><path d="M 233.05 752.52 L 222.06 754.11 L 222.06 753.67 L 233.05 752.08 L 233.05 752.52 Z" fill="#f7f7f7" fill-rule="nonzero" group-id="1,15" node-id="594" stroke="none" target-height="2.0299683" target-width="10.9900055" target-x="222.06" target-y="752.08"></path><path d="M 233.05 752.96 L 222.06 754.55 L 222.06 754.11 L 233.05 752.52 L 233.05 752.96 Z" fill="#f6f6f6" fill-rule="nonzero" group-id="1,15" node-id="596" stroke="none" target-height="2.0299683" target-width="10.9900055" target-x="222.06" target-y="752.52"></path><path d="M 233.05 753.40 L 222.06 754.99 L 222.06 754.55 L 233.05 752.96 L 233.05 753.40 Z" fill="#f5f5f5" fill-rule="nonzero" group-id="1,15" node-id="598" stroke="none" target-height="2.0299683" target-width="10.9900055" target-x="222.06" target-y="752.96"></path><path d="M 233.05 753.84 L 222.06 755.43 L 222.06 754.99 L 233.05 753.40 L 233.05 753.84 Z" fill="#f4f4f4" fill-rule="nonzero" group-id="1,15" node-id="600" stroke="none" target-height="2.0299683" target-width="10.9900055" target-x="222.06" target-y="753.4"></path><path d="M 233.05 754.28 L 222.06 755.87 L 222.06 755.43 L 233.05 753.84 L 233.05 754.28 Z" fill="#f2f2f2" fill-rule="nonzero" group-id="1,15" node-id="602" stroke="none" target-height="2.0299683" target-width="10.9900055" target-x="222.06" target-y="753.84"></path><path d="M 233.05 754.72 L 222.06 756.31 L 222.06 755.87 L 233.05 754.28 L 233.05 754.72 Z" fill="#f1f1f1" fill-rule="nonzero" group-id="1,15" node-id="604" stroke="none" target-height="2.0299683" target-width="10.9900055" target-x="222.06" target-y="754.28"></path><path d="M 233.05 755.16 L 222.06 756.75 L 222.06 756.31 L 233.05 754.72 L 233.05 755.16 Z" fill="#f0f0f0" fill-rule="nonzero" group-id="1,15" node-id="606" stroke="none" target-height="2.0300293" target-width="10.9900055" target-x="222.06" target-y="754.72"></path><path d="M 233.05 755.60 L 222.06 757.19 L 222.06 756.75 L 233.05 755.16 L 233.05 755.60 Z" fill="#efefef" fill-rule="nonzero" group-id="1,15" node-id="608" stroke="none" target-height="2.0300293" target-width="10.9900055" target-x="222.06" target-y="755.16"></path><path d="M 233.05 756.04 L 222.06 757.63 L 222.06 757.19 L 233.05 755.60 L 233.05 756.04 Z" fill="#eeeeee" fill-rule="nonzero" group-id="1,15" node-id="610" stroke="none" target-height="2.0300293" target-width="10.9900055" target-x="222.06" target-y="755.6"></path><path d="M 233.05 756.48 L 222.06 758.07 L 222.06 757.63 L 233.05 756.04 L 233.05 756.48 Z" fill="#ededed" fill-rule="nonzero" group-id="1,15" node-id="612" stroke="none" target-height="2.0300293" target-width="10.9900055" target-x="222.06" target-y="756.04"></path><path d="M 233.05 756.91 L 222.06 758.51 L 222.06 758.07 L 233.05 756.48 L 233.05 756.91 Z" fill="#ececec" fill-rule="nonzero" group-id="1,15" node-id="614" stroke="none" target-height="2.0300293" target-width="10.9900055" target-x="222.06" target-y="756.48"></path><path d="M 233.05 757.35 L 222.06 758.95 L 222.06 758.51 L 233.05 756.91 L 233.05 757.35 Z" fill="#ebebeb" fill-rule="nonzero" group-id="1,15" node-id="616" stroke="none" target-height="2.040039" target-width="10.9900055" target-x="222.06" target-y="756.91"></path><path d="M 233.05 757.79 L 222.06 759.39 L 222.06 758.95 L 233.05 757.35 L 233.05 757.79 Z" fill="#eaeaea" fill-rule="nonzero" group-id="1,15" node-id="618" stroke="none" target-height="2.040039" target-width="10.9900055" target-x="222.06" target-y="757.35"></path><path d="M 233.05 758.23 L 222.06 759.83 L 222.06 759.39 L 233.05 757.79 L 233.05 758.23 Z" fill="#e9e9e9" fill-rule="nonzero" group-id="1,15" node-id="620" stroke="none" target-height="2.040039" target-width="10.9900055" target-x="222.06" target-y="757.79"></path><path d="M 233.05 758.67 L 222.06 760.27 L 222.06 759.83 L 233.05 758.23 L 233.05 758.67 Z" fill="#e8e8e8" fill-rule="nonzero" group-id="1,15" node-id="622" stroke="none" target-height="2.040039" target-width="10.9900055" target-x="222.06" target-y="758.23"></path><path d="M 233.05 759.11 L 224.52 760.35 L 222.06 760.35 L 222.06 760.27 L 233.05 758.67 L 233.05 759.11 Z" fill="#e7e7e7" fill-rule="nonzero" group-id="1,15" node-id="624" stroke="none" target-height="1.6799927" target-width="10.9900055" target-x="222.06" target-y="758.67"></path><path d="M 233.05 759.55 L 227.55 760.35 L 224.52 760.35 L 233.05 759.11 L 233.05 759.55 Z" fill="#e6e6e6" fill-rule="nonzero" group-id="1,15" node-id="626" stroke="none" target-height="1.2399902" target-width="8.529999" target-x="224.52" target-y="759.11"></path><path d="M 227.55 760.35 L 233.05 759.55 L 233.05 760.35 L 227.55 760.35 Z" fill="#e6e6e6" fill-rule="nonzero" group-id="1,15" node-id="628" stroke="none" target-height="0.7999878" target-width="5.5" target-x="227.55" target-y="759.55"></path></g><path d="M 227.55 768.68 L 224.00 762.27 C 223.10 760.62 221.75 759.26 220.10 758.36 L 213.68 754.85 L 220.10 751.34 C 221.75 750.44 223.10 749.09 224.00 747.44 L 227.51 741.02 L 231.02 747.44 C 231.92 749.09 233.28 750.44 234.93 751.34 L 241.34 754.85 L 235.00 758.36 C 233.35 759.27 232.00 760.62 231.09 762.27 Z" fill="#1a1b23" fill-rule="nonzero" group-id="1" node-id="631" stroke="none" target-height="27.659973" target-width="27.660004" target-x="213.68" target-y="741.02"></path></g></svg>